<svg preserveAspectRatio="none" width="100%" height="100%" overflow="visible" style="display: block;" viewBox="0 0 64 65" fill="none" xmlns="http://www.w3.org/2000/svg">
<g id="washing-machine-2 1 [Vectorized]">
<path id="Vector" d="M0 12.9969C0.549236 12.6191 0.824506 12.4533 1.51663 12.4408C3.16471 12.4109 4.8287 12.4242 6.47756 12.4254L15.6327 12.4294L43.8692 12.4294L57.3187 12.4284L60.8712 12.4281C62.1996 12.4293 62.8269 12.2617 64 12.9844V51.9832C63.64 52.2187 63.2737 52.5069 62.8225 52.5401C61.9947 52.6009 61.1045 52.5807 60.2721 52.581L55.5909 52.5806L39.9027 52.5773L14.2008 52.5771L6.05596 52.5812C4.52689 52.5835 2.97416 52.6025 1.44572 52.5605C0.833113 52.5437 0.466462 52.3469 0 51.9754V12.9969ZM3.30439 16.2788L3.30273 37.5764C3.30298 41.1758 3.38761 45.1502 3.2837 48.7253C8.05988 48.8084 13.0045 48.7492 17.7929 48.7492L43.9827 48.7474L45.3308 48.7569C45.2441 47.8056 45.3234 45.3621 45.324 44.3083L45.3261 34.8741L45.3236 22.613C45.3226 20.7755 45.2351 18.0419 45.3397 16.2922L21.1924 16.2726L10.4581 16.2736C8.63112 16.2739 6.69775 16.2397 4.88532 16.2795C4.38679 16.2914 3.79251 16.3204 3.30439 16.2788ZM49.1396 44.0597C49.1412 45.4169 49.2025 47.4069 49.1198 48.7197C51.4339 48.7866 53.8937 48.7491 56.2192 48.75C57.4756 48.7505 59.4871 48.8109 60.6816 48.7321C60.6815 47.1909 60.7171 45.6376 60.6968 44.0989C58.0191 44.0601 55.3412 44.0499 52.6633 44.0683C51.9968 44.0691 49.6721 44.1279 49.1396 44.0597ZM59.5156 40.2402L60.6834 40.2364L60.6997 23.689C60.6996 21.3966 60.6189 18.5516 60.7072 16.2973C57.4079 16.2528 53.7222 16.2051 50.4373 16.2799C50.0001 16.29 49.572 16.3081 49.1356 16.276L49.1339 31.9057L49.1363 37.2296C49.1366 38.1468 49.1693 39.3231 49.1178 40.2163C52.5354 40.2887 56.0877 40.2427 59.5156 40.2402Z" fill="var(--fill-0, white)"/>
<path id="Vector_2" d="M8.67381 19.8347C10.1786 19.7483 12.1043 19.8048 13.6427 19.805L22.6889 19.8058L33.5239 19.8029C35.453 19.8016 37.3864 19.7898 39.3125 19.8131C40.0097 19.8216 40.5477 19.8893 40.9898 20.4618C41.1511 20.6574 41.3357 20.8525 41.3811 21.1143C41.6402 22.6094 41.5366 24.3581 41.5366 25.8726L41.5369 33.7609L41.5364 40.0292C41.5364 41.055 41.5603 42.1027 41.5247 43.1261C41.4909 44.1003 40.8736 44.9722 39.9047 45.1828C38.6647 45.2775 36.6431 45.2183 35.3616 45.2182L26.8462 45.2168L15.0568 45.2159C13.117 45.2166 11.1782 45.2238 9.23794 45.2206C8.36175 45.2192 7.39144 44.7139 7.22844 43.7923C6.978 42.3768 7.0885 40.7562 7.08912 39.2999L7.09181 31.7825L7.08956 25.1801C7.08912 24.1029 7.06306 23.0026 7.09787 21.9278C7.13094 20.9089 7.66706 20.0705 8.67381 19.8347ZM10.8853 41.2361C14.4097 41.3046 18.0617 41.2582 21.5937 41.2583L37.6712 41.2554C37.8001 41.0277 37.7189 25.3921 37.7495 23.7837C31.5156 23.6781 25.0551 23.7618 18.7997 23.7626L13.6747 23.7663C12.9341 23.7684 11.6094 23.8147 10.9214 23.753C10.8629 25.2798 10.905 27.0244 10.9071 28.5651L10.9098 36.8931C10.9097 38.2382 10.9535 39.9129 10.8853 41.2361Z" fill="var(--fill-0, white)"/>
<path id="Vector_3" d="M54.2676 17.7652C56.9333 17.4443 59.3591 19.3332 59.7013 21.9963C60.0435 24.6594 58.174 27.1001 55.5137 27.4635C52.8232 27.8311 50.3488 25.9357 50.0027 23.2424C49.6566 20.5492 51.5716 18.0899 54.2676 17.7652ZM55.0952 23.6532C55.6335 23.5537 55.9888 23.0363 55.8881 22.4982C55.7874 21.9601 55.2691 21.6061 54.7313 21.708C54.1953 21.8096 53.8426 22.3259 53.9429 22.8621C54.0432 23.3984 54.5588 23.7522 55.0952 23.6532Z" fill="var(--fill-0, white)"/>
<path id="Vector_4" d="M54.3784 29.011C57.0498 28.7505 59.4315 30.6931 59.7134 33.3623C59.9953 36.0316 58.0719 38.4288 55.4049 38.7321C52.7076 39.0388 50.2771 37.0886 49.9921 34.3889C49.7069 31.6893 51.6765 29.2745 54.3784 29.011ZM55.0957 34.7928C55.6233 34.6945 55.9761 34.1933 55.8904 33.6636C55.8047 33.1338 55.312 32.7693 54.7804 32.8423C54.4251 32.8911 54.1241 33.1286 53.9939 33.4627C53.8639 33.797 53.9251 34.1755 54.1539 34.4517C54.3827 34.7279 54.7432 34.8584 55.0957 34.7928Z" fill="var(--fill-0, white)"/>
</g>
</svg>
