<svg preserveAspectRatio="none" width="100%" height="100%" overflow="visible" style="display: block;" viewBox="0 0 64 65" fill="none" xmlns="http://www.w3.org/2000/svg">
<g id="washing-machine-2 1 [Vectorized]">
<path id="Vector" d="M3.24434 0H60.7625C60.6957 5.56416 60.7519 11.2518 60.7523 16.8278L60.7538 48.6161L60.7537 59.4466C60.7537 61.2636 60.7857 63.19 60.7501 65H3.2597C3.1727 59.6469 3.25064 54.0591 3.25101 48.6824L3.25254 16.6368C3.25246 11.1177 3.30283 5.51381 3.24434 0ZM7.11069 61.2187C10.6616 61.3299 14.6455 61.2477 18.2289 61.2473L38.6112 61.2463L50.9929 61.2467L54.9187 61.2504C55.3936 61.2509 56.4271 61.2801 56.8624 61.2419C56.8297 59.8816 56.8647 58.425 56.8655 57.0557L56.8666 48.7204L56.8686 23.0194C56.8687 19.316 56.9663 15.1082 56.8531 11.4334C52.9099 11.4887 48.8374 11.4357 44.8856 11.4357L21.2973 11.4366L11.295 11.4358L8.84262 11.4479C8.34681 11.4541 7.61 11.4965 7.14156 11.4183C7.068 15.5342 7.12337 19.7991 7.12369 23.9237L7.12662 46.8906L7.12806 56.3187C7.12825 57.7325 7.19162 59.8563 7.11069 61.2187ZM18.5099 7.59225C21.0754 7.61394 45.3018 7.67038 45.4877 7.54394C45.5044 6.32363 45.475 4.99579 45.5146 3.79113C39.0652 3.70838 32.4853 3.76595 26.0264 3.76892L21.0286 3.77608C20.4069 3.77786 19.0568 3.82892 18.5155 3.73902C18.4966 5.02336 18.4947 6.30787 18.5099 7.59225ZM49.2655 3.73902C49.2466 5.02336 49.2447 6.30787 49.2602 7.59225C51.7953 7.61412 54.3306 7.62162 56.8658 7.61469C56.8604 6.46775 56.8193 4.90654 56.8784 3.78334C55.1839 3.77112 53.4894 3.76864 51.7949 3.7759C51.1678 3.77726 49.8095 3.82935 49.2655 3.73902ZM14.7644 3.79113C12.6646 3.76569 10.3529 3.72618 8.26237 3.78058C7.84412 3.79444 7.53994 3.8032 7.12206 3.77411C7.12837 4.95594 7.16125 6.403 7.11756 7.57706C9.30237 7.65344 11.6319 7.61381 13.8281 7.6105L14.739 7.61188C14.7502 6.38638 14.725 5.0051 14.7644 3.79113Z" fill="var(--fill-0, white)"/>
<path id="Vector_2" d="M30.8556 15.2643C42.4877 14.6346 52.4249 23.5601 53.0432 35.1927C53.6614 46.8255 44.7262 56.7539 33.0929 57.3607C21.4758 57.9666 11.5642 49.0466 10.9468 37.4301C10.3294 25.8136 19.2397 15.8932 30.8556 15.2643ZM49.1541 38.2682C47.9767 38.277 46.524 38.3288 45.37 38.2821C45.0109 40.2621 44.6901 41.2186 43.6522 42.8974C42.4606 44.8248 41.5524 46.0719 39.6424 47.3954C39.1228 47.7546 38.5794 48.0781 38.0158 48.3633C34.6942 49.9909 30.8559 50.2076 27.3722 48.9644C21.8284 47.015 17.8918 40.93 18.5622 35.0418C18.8633 32.3973 19.1726 31.9656 20.314 29.7678C24.6761 21.3686 36.7674 20.5331 42.5107 27.9191C42.9071 28.4324 43.1926 29.0073 43.5464 29.5391C44.5444 31.0391 45.0861 32.5076 45.3532 34.3071C46.6548 34.3893 47.8926 34.3134 49.1439 34.3816C48.3815 29.3725 46.4345 25.4942 42.2607 22.498C38.8632 20.0589 35.9657 19.0409 31.8032 19.0298C30.3259 19.0713 27.8869 19.3466 26.4928 19.8897C19.099 22.7697 14.5623 28.9116 14.7651 36.9919C15.0364 47.7977 25.7196 55.7226 36.1162 53.1181C39.3529 52.3073 42.6323 50.1236 44.9446 47.761C47.3511 45.1926 48.6234 41.6819 49.1541 38.2682ZM32.7164 45.9228C38.0307 45.5233 42.0128 40.8882 41.607 35.5744C41.2011 30.2606 36.5612 26.284 31.2479 26.6963C25.9436 27.1078 21.9752 31.7381 22.3804 37.0429C22.7856 42.3477 27.4111 46.3216 32.7164 45.9228Z" fill="var(--fill-0, white)"/>
</g>
</svg>
