<svg preserveAspectRatio="none" width="100%" height="100%" overflow="visible" style="display: block;" viewBox="0 0 65 65" fill="none" xmlns="http://www.w3.org/2000/svg">
<g id="ice 1 [Vectorized]" clip-path="url(#clip0_0_45564)">
<path id="Vector" d="M47.6788 39.3915C48.3709 38.6793 50.134 36.4081 51.1474 37.1928C51.3998 37.3898 51.5602 37.6818 51.5909 38.0005C51.6665 38.8516 49.4997 40.5806 48.7937 41.3976C48.7 42.0693 48.7537 45.0323 48.7853 45.7893C49.4964 45.2493 51.5829 44.1539 52.496 43.5968C52.9397 42.5636 53.0595 41.2949 53.4582 40.2375C53.9206 39.0113 55.1175 38.9603 55.6328 40.2181C55.5623 40.9578 55.0367 42.7598 54.8191 43.5605C55.8292 43.7965 56.7369 44.0069 57.7169 44.3564C59.0924 44.8469 58.3847 46.4955 57.4886 46.4231C56.2451 46.3225 54.8719 45.7288 53.5851 45.5328C52.4302 46.0502 50.9658 47.1597 49.8474 47.6129C50.4733 48.082 52.8838 49.4451 53.6222 49.8207C54.6641 49.6735 57.4185 48.6019 57.9493 49.0267C60.298 50.9066 55.3311 51.6865 54.8344 51.8134C55.054 52.6811 55.9011 54.8404 55.3549 55.6265C54.8794 56.3108 54.2594 56.0965 53.6731 55.6688C53.2184 54.7018 52.9235 52.8725 52.5367 51.7778C51.4707 50.9903 49.8727 50.3167 48.785 49.5351C48.7159 50.8392 48.7404 52.6133 48.7665 53.9288C49.7286 54.9628 53.1664 57.3951 50.6413 58.3723C49.7175 58.3349 48.5122 56.6515 47.6299 55.94C47.038 56.5808 45.6575 58.1831 44.7936 58.3233C44.1221 58.4323 43.3769 57.4738 43.8445 56.801C44.5796 55.7432 45.6529 54.9018 46.5396 53.9338C46.6432 52.8361 46.5779 50.7318 46.5744 49.5764C45.7276 50.0315 43.54 51.2338 42.8447 51.7731C42.1546 53.0756 42.2554 57.0878 40.013 55.7625C39.4036 54.865 40.2262 52.8442 40.5118 51.8011C39.8559 51.629 37.1498 51.0602 36.9614 50.5234C35.9481 47.6346 40.6054 49.6488 41.7304 49.8251C42.8595 49.2129 44.3753 48.3304 45.4554 47.6467C44.39 46.9786 42.8576 46.1322 41.7449 45.5396C40.9315 45.6532 37.8471 46.7263 37.3647 46.3022C35.2379 44.4325 39.372 43.8213 40.4998 43.584C40.3463 42.9285 39.4552 40.2586 39.8946 39.8003C41.8327 37.7785 42.4263 42.2524 42.7651 43.5431C43.7532 44.2326 45.5014 45.1599 46.5876 45.775C46.5178 44.3585 46.6393 42.8388 46.5442 41.3872C45.7916 40.4854 42.0251 37.778 44.6313 37.0187C45.691 37.078 46.8083 38.5788 47.6788 39.3915Z" fill="var(--fill-0, white)"/>
<path id="Vector_2" d="M40.3606 4.40358C41.3494 4.25036 42.3993 4.67032 42.8189 5.61292C43.1219 6.29345 44.8741 9.37067 44.5581 9.93796C43.1478 12.4696 41.7946 8.50757 41.3204 7.48268C41.1701 7.15603 41.0111 6.83344 40.8435 6.5153C40.3627 6.73778 39.8147 7.04292 39.3207 7.24128C38.3948 7.61319 36.0544 9.29995 35.7107 7.46319C35.6306 7.03517 35.7614 6.82373 35.98 6.46617C36.5652 6.08629 39.7224 4.58891 40.3606 4.40358Z" fill="var(--fill-0, white)"/>
<path id="Vector_3" d="M39.7547 0H41.8755L41.9202 0.0206703C42.2376 0.164951 42.6801 0.286814 43.0207 0.395266C46.1751 1.39981 47.1617 4.60068 48.4601 7.33453L51.6565 14.0357L54.6007 20.2039C55.9059 22.9338 57.5237 25.4171 56.2178 28.505C55.9491 29.1406 55.6855 29.3927 55.0716 29.6382C53.2019 28.9635 54.1965 28.2079 54.4387 26.759C54.5494 26.1096 54.5115 25.4436 54.3279 24.811C54.1557 24.23 53.1003 22.1103 52.8029 21.4869L49.5621 14.6965L46.1972 7.63604C45.6423 6.47175 45.0504 5.13476 44.409 4.03221C44.0883 3.48104 43.1679 2.74718 42.5586 2.53402C41.1013 2.02417 39.9474 2.13736 38.5746 2.79219C34.1779 4.8895 29.7851 6.99378 25.3879 9.08508L21.2958 11.0301C20.6139 11.3544 19.3703 11.9092 18.783 12.3183C18.0853 12.8006 17.5538 13.487 17.2614 14.2832C16.7343 15.7211 16.9978 16.8634 17.6216 18.1937L18.7494 20.5443C20.962 20.6816 23.5128 20.513 25.7543 20.5742C27.1652 20.6126 28.5354 20.4536 29.9291 20.8406C31.1295 21.1746 32.2071 21.8503 33.0307 22.7853C34.9322 24.9284 34.6684 27.0332 34.6696 29.691L34.6694 35.6559L34.669 44.3398C34.6689 45.9045 34.6859 47.4914 34.6383 49.0539C34.5853 50.7898 33.7719 52.4569 32.4599 53.6148C31.5401 54.4277 30.4133 54.9699 29.2042 55.1816C28.2289 55.3541 26.4865 55.301 25.4311 55.3006L19.599 55.2977L10.9941 55.3001C9.42348 55.3003 7.75709 55.3305 6.20306 55.2623C4.37379 55.1821 2.70006 54.2934 1.51567 52.9189C0.917814 52.2251 0.553321 51.5514 0.298998 50.672C0.249097 50.4995 0.0902916 49.9648 0 49.8299V25.9722C0.108129 25.8127 0.300417 25.2147 0.370156 25.0047C0.715609 23.9646 1.14837 23.2221 1.92338 22.447C2.72572 21.652 3.72514 21.0849 4.81906 20.8037C6.08608 20.4836 8.56293 20.5746 9.96849 20.5757L16.3601 20.5775C16.3183 20.5026 16.2781 20.4268 16.2395 20.3502C15.1183 18.115 14.2933 16.2908 15.1513 13.7511C15.5711 12.4826 16.372 11.3746 17.4449 10.5783C18.0404 10.1316 19.1199 9.65523 19.8282 9.31715L23.0372 7.78889L37.0198 1.10921C37.4128 0.920753 37.7821 0.733522 38.1869 0.570004C38.6311 0.390588 39.3081 0.225832 39.7151 0.0204008L39.7547 0ZM28.1405 53.0747C29.4821 53.0032 30.4823 52.6039 31.4041 51.6092C32.754 50.1525 32.5048 48.1077 32.5057 46.2796L32.5073 40.6989L32.5065 31.8501C32.506 30.284 32.5214 28.7036 32.483 27.1352C32.4495 25.7696 32.0324 24.7716 31.0263 23.8426C30.5239 23.3788 29.6446 22.9333 28.9619 22.8584C28.0668 22.7602 26.9023 22.7937 25.9831 22.7948L20.8977 22.7965L12.1067 22.7981C10.3394 22.7946 8.28585 22.743 6.54126 22.8226C5.24007 22.8537 4.28174 23.1291 3.35597 24.0983C2.77005 24.7113 2.38467 25.4882 2.25114 26.3256C2.12991 27.0432 2.16444 28.5492 2.1645 29.3234L2.16611 34.1932L2.16679 43.4258C2.16491 45.1179 2.15747 46.8092 2.16915 48.5023C2.17518 49.374 2.30517 50.1398 2.74763 50.903C3.35888 51.9574 4.42682 52.7752 5.64394 52.9705C6.67665 53.1361 7.78153 53.0852 8.83391 53.0829L13.186 53.0784C18.142 53.0771 23.1933 53.1327 28.1405 53.0747Z" fill="var(--fill-0, white)"/>
<path id="Vector_4" d="M17.0055 24.9624C17.4978 24.9207 17.9806 25.0291 18.2564 25.4695C18.5351 25.9146 18.3499 26.4739 18.0177 26.8244C17.2541 27.6301 16.4615 28.4073 15.6776 29.1907L11.3895 33.4745L8.07041 36.7954C7.49442 37.3715 6.31639 38.6349 5.70122 38.9954C5.20503 39.1071 4.67779 38.9097 4.42993 38.4456C4.11048 37.8475 4.47428 37.3382 4.88561 36.9114C5.59488 36.1753 6.32702 35.4562 7.05206 34.7316L11.0687 30.7159L14.5161 27.2679C15.0406 26.7425 16.4091 25.2577 17.0055 24.9624Z" fill="var(--fill-0, white)"/>
<path id="Vector_5" d="M29.0191 44.4409C30.7666 44.4634 30.2464 45.8399 30.3362 46.9602C30.6975 51.4667 28.5605 50.9909 25.1799 50.9658C23.3176 50.8334 23.4237 48.9038 24.9646 48.771C25.9394 48.687 27.1602 48.7477 28.1699 48.7425C28.1792 47.6941 28.0307 45.97 28.323 45.0065C28.4192 44.6891 28.7331 44.5541 29.0191 44.4409Z" fill="var(--fill-0, white)"/>
<path id="Vector_6" d="M10.5237 24.954C10.7445 24.9445 10.9588 24.9427 11.1697 25.0188C11.4324 25.1138 11.705 25.329 11.8224 25.5864C11.9335 25.8296 11.9125 26.1002 11.8174 26.3452C11.5988 26.9085 6.9138 31.5282 6.16908 32.1669C6.00983 32.3035 5.83983 32.402 5.64951 32.4888C4.38162 32.5642 3.90614 31.4441 4.77611 30.523C5.71526 29.5636 6.70014 28.5051 7.674 27.5889C8.37046 26.9337 9.76365 25.3148 10.5237 24.954Z" fill="var(--fill-0, white)"/>
<path id="Vector_7" d="M45.8065 65C45.4505 64.8451 44.0101 64.6204 43.5235 64.5036C42.7163 64.3094 42.1771 64.1386 41.3812 63.8295C38.4323 62.6732 35.8541 60.7356 33.9233 58.2246C33.469 57.6349 32.4127 56.3661 32.7483 55.5382C32.9556 55.027 33.8968 54.7767 34.3599 55.1957C34.9471 55.7272 35.2942 56.472 35.7986 57.0821C37.3122 59.0341 39.3713 60.5976 41.6338 61.5798C45.3132 63.1755 49.4746 63.2503 53.209 61.7877C56.9731 60.3005 59.9932 57.3805 61.6065 53.6686C63.2008 49.9589 63.2512 45.7669 61.7464 42.0199C60.2461 38.2776 57.3117 35.2905 53.5967 33.7238C49.8435 32.1344 45.1236 32.1282 41.4242 33.8578C40.8187 34.1389 40.2327 34.4599 39.6697 34.8185C39.0338 35.2212 38.1208 36.0675 37.3587 35.6303C37.154 35.5129 36.9429 35.2455 36.8711 35.0267C36.5639 34.0905 37.819 33.3501 38.4236 32.9749C39.7613 32.1449 41.1733 31.5112 42.6597 31.0616C47.0764 29.7316 51.8411 30.2188 55.897 32.4153C59.8189 34.5221 62.7778 38.0597 64.1583 42.2923C64.5671 43.5605 64.6547 44.7354 64.981 45.7925L65 45.8519V49.5449L64.9816 49.6008C64.6483 50.6217 64.5455 51.8805 64.1189 53.1697C62.6831 57.442 59.6446 60.9897 55.6439 63.065C54.0446 63.8923 52.5433 64.4205 50.7743 64.7226C50.5596 64.7594 49.8385 64.8959 49.6839 65H45.8065Z" fill="var(--fill-0, white)"/>
</g>
<defs>
<clipPath id="clip0_0_45564">
<rect width="65" height="65" fill="white"/>
</clipPath>
</defs>
</svg>
