<svg preserveAspectRatio="none" width="100%" height="100%" overflow="visible" style="display: block;" viewBox="0 0 64 65" fill="none" xmlns="http://www.w3.org/2000/svg">
<g id="washing-machine-2 1 [Vectorized]" clip-path="url(#clip0_0_45591)">
<path id="Vector" d="M0 0H64V57.4064C63.2275 57.4333 61.4192 57.5632 60.7768 57.3738C60.6881 59.8904 60.8054 62.4857 60.7501 65H3.25979C3.1914 62.6075 3.25127 59.8416 3.24658 57.4331C2.525 57.4828 0.683825 57.4891 0 57.4013V0ZM60.7379 53.544C60.8078 49.1836 60.7524 44.6781 60.7524 40.309L60.7516 15.6936C60.7515 11.7923 60.6861 7.67813 60.7646 3.79057C55.7648 3.73141 50.7018 3.76949 45.6982 3.76915L19.2526 3.76896L8.10725 3.77008L5.26493 3.77784C4.69132 3.78266 3.80636 3.82638 3.26443 3.73886C3.15492 10.9114 3.25168 18.3274 3.25277 25.5159L3.25884 53.5932L39.7368 53.6133L53.4474 53.6124C54.1017 53.6124 60.5669 53.6577 60.7379 53.544ZM7.11062 61.2188C11.2415 61.3467 15.8686 61.2476 20.0436 61.2473L44.1919 61.2465L53.5712 61.2508C54.0932 61.2511 56.4896 61.3202 56.8501 61.2219C56.8649 59.9593 56.8661 58.6967 56.8534 57.4341C52.9269 57.4815 48.9154 57.4354 44.9813 57.435L21.5776 57.4341L11.4294 57.436L8.97262 57.4449C8.44787 57.4514 7.63813 57.5005 7.14394 57.4199C7.12088 58.5844 7.17556 60.105 7.11062 61.2188Z" fill="var(--fill-0, white)"/>
<path id="Vector_2" d="M7.16519 15.2767C8.81119 15.1641 11.5556 15.2467 13.2577 15.2466L25.0865 15.2474L45.5016 15.2466C49.2743 15.2468 53.1174 15.2095 56.8859 15.2643C56.8358 16.1018 56.8761 17.3534 56.8766 18.2144L56.8763 23.834L56.8753 41.29L56.8802 46.8771C56.8807 47.5401 56.9189 49.192 56.8418 49.7674C52.5675 49.7171 48.1589 49.7738 43.8727 49.7721L7.09962 49.7593C7.16237 49.0589 7.11675 47.5193 7.11675 46.7464L7.1165 40.7048L7.11906 21.8242C7.11831 20.9369 7.00706 15.804 7.16519 15.2767ZM53.1239 34.6121L53.117 24.6273C53.1154 22.8081 53.0741 20.8431 53.1273 19.0389C50.5926 19.0696 47.956 19.026 45.4085 19.0256L28.1204 19.0248L16.4287 19.0259C14.6692 19.0263 12.6051 19.0851 10.8737 19.0351C10.9156 22.8213 10.8422 26.6189 10.8779 30.4061C10.8883 31.5037 10.8917 32.6171 10.8654 33.7132C10.7298 34.1942 10.8087 35.1293 10.8405 35.6476C10.8971 35.3997 11.0444 34.6786 10.9824 34.454C11.1037 33.0157 11.8456 31.4992 12.4635 30.1933C14.879 25.0885 20.462 22.2822 25.9955 22.9826C26.4897 23.0452 27.8524 23.3866 28.2714 23.3274C29.7495 23.1183 31.1848 22.7483 32.7061 22.8797C33.789 22.9464 34.7536 23.2519 35.8054 23.3241C36.1926 23.3508 37.1637 23.1185 37.5886 23.0457C38.6594 22.8535 39.7518 22.8126 40.834 22.9243C45.8092 23.4298 49.7502 26.2109 51.8013 30.7387C52.0289 31.2412 52.4152 31.9128 52.5684 32.422C52.7866 33.1471 52.8899 33.8764 53.1239 34.6121ZM25.0914 45.9214C30.4041 45.523 34.3866 40.8908 33.9834 35.5784C33.5804 30.2659 28.9446 26.2876 23.6326 26.6954C18.3271 27.1027 14.3549 31.7314 14.7574 37.0371C15.1601 42.3429 19.7852 46.3193 25.0914 45.9214ZM41.5348 45.7969C42.5697 45.5523 43.6588 45.1996 44.5314 44.5692C46.8646 43.0447 48.4523 41.1096 49.0299 38.3252C49.5672 35.805 49.0735 33.1746 47.6589 31.0207C46.2617 28.9138 44.1608 27.3505 41.6549 26.8612L41.6834 26.9023C41.9751 27.3176 42.3599 27.7213 42.68 28.1649C44.9848 31.3591 45.9808 34.5653 45.3082 38.5948C45.1533 39.5402 44.8873 40.4639 44.5158 41.3469C44.0379 42.4573 42.4087 44.9481 41.5348 45.7969ZM33.9059 45.7956C34.8553 45.5682 36.1476 45.215 36.9065 44.5783C39.3537 42.8838 40.9024 41.0957 41.4576 38.0586C41.922 35.55 41.37 32.9597 39.9231 30.8586C38.587 28.9346 36.3892 27.2184 34.0243 26.8535C34.7907 27.9199 35.7465 28.9768 36.3764 30.1577C38.6529 34.4259 38.3687 40.2211 35.2971 44.0401C34.7672 44.7018 34.5617 45.1751 33.9059 45.7956ZM10.8707 36.973C10.8224 37.3362 10.7006 38.7917 10.864 39.0462C10.8799 39.3727 10.8796 39.7343 10.8754 40.0621C10.8502 42.0202 10.9292 44.0114 10.8585 45.9663C12.1651 46.0254 13.7122 46.0126 15.0244 45.988C13.3056 44.5058 11.2619 40.5151 10.9833 38.2435C11.0246 37.9697 10.9116 37.2824 10.8707 36.973ZM53.114 37.0254C53.0691 37.4341 53.0462 37.8963 53.017 38.3105C52.9054 38.8296 52.6943 39.8311 52.5132 40.2884C51.8037 42.0802 50.3965 44.6641 48.9888 45.979C49.5377 45.998 52.8931 46.1195 53.1101 45.8977C53.1134 45.8944 53.1149 45.8898 53.1174 45.8858C53.2672 44.6416 53.1688 42.4449 53.1903 41.1088C53.2071 40.0563 53.2719 37.9544 53.114 37.0254Z" fill="var(--fill-0, white)"/>
<path id="Vector_3" d="M23.8717 30.4927C27.0835 30.2124 29.9156 32.586 30.2011 35.7972C30.4865 39.0086 28.1176 41.8444 24.9068 42.1352C21.6886 42.4266 18.8446 40.051 18.5585 36.8323C18.2724 33.6136 20.6526 30.7736 23.8717 30.4927ZM24.8396 38.2821C25.5486 38.1132 26.1118 37.5759 26.3139 36.8756C26.5159 36.1754 26.3255 35.4206 25.8154 34.9C25.3054 34.3794 24.5547 34.1735 23.8504 34.3611C22.7814 34.6459 22.1397 35.7369 22.4104 36.8097C22.681 37.8824 23.7634 38.5385 24.8396 38.2821Z" fill="var(--fill-0, white)"/>
<path id="Vector_4" d="M53.114 37.0254C53.2719 37.9544 53.2071 40.0563 53.1903 41.1088C53.1688 42.4449 53.2672 44.6416 53.1174 45.8858C53.0694 45.6575 53.0924 44.6186 53.0939 44.3338L53.115 40.2546C53.1169 39.8309 53.1457 38.6288 53.0907 38.2997L53.017 38.3105C53.0462 37.8963 53.0691 37.4341 53.114 37.0254Z" fill="var(--fill-0, black)" fill-opacity="0.788235"/>
<path id="Vector_5" d="M10.8707 36.973C10.9116 37.2824 11.0246 37.9697 10.9833 38.2435L10.9051 38.2333C10.8417 38.5813 10.8938 38.7705 10.864 39.0462C10.7006 38.7917 10.8224 37.3362 10.8707 36.973Z" fill="var(--fill-0, black)" fill-opacity="0.823529"/>
<path id="Vector_6" d="M10.8405 35.6476C10.8087 35.1293 10.7298 34.1942 10.8654 33.7132C10.8672 33.9042 10.8392 34.3564 10.9357 34.485L10.9824 34.454C11.0444 34.6786 10.8971 35.3997 10.8405 35.6476Z" fill="var(--fill-0, black)" fill-opacity="0.831373"/>
<path id="Vector_7" d="M41.6278 7.61469L49.2386 7.61581C49.2482 8.24462 49.3292 10.9782 49.1873 11.4044C46.8288 11.5846 43.9286 11.3107 41.5992 11.4298C41.6507 10.2709 41.6143 8.80937 41.6278 7.61469Z" fill="var(--fill-0, white)"/>
<path id="Vector_8" d="M16.2889 7.66194C16.9531 7.54438 17.6292 7.79269 18.0594 8.31225C18.4896 8.83175 18.6076 9.54231 18.3683 10.173C18.1289 10.8036 17.5693 11.2571 16.9027 11.3604C15.8873 11.5178 14.9344 10.8284 14.7663 9.81481C14.598 8.80113 15.2771 7.84094 16.2889 7.66194Z" fill="var(--fill-0, white)"/>
<path id="Vector_9" d="M23.9216 7.66206C24.9473 7.48375 25.9216 8.17631 26.0902 9.20375C26.2587 10.2311 25.5569 11.1988 24.5279 11.3576C23.5127 11.5143 22.5608 10.8239 22.3945 9.81019C22.2281 8.7965 22.9095 7.83806 23.9216 7.66206Z" fill="var(--fill-0, white)"/>
<path id="Vector_10" d="M54.6716 7.66206C55.6973 7.48381 56.6714 8.17644 56.84 9.20375C57.0086 10.2311 56.3068 11.1987 55.2779 11.3576C54.2627 11.5144 53.3107 10.8239 53.1444 9.81019C52.978 8.79644 53.6594 7.838 54.6716 7.66206Z" fill="var(--fill-0, white)"/>
<path id="Vector_11" d="M8.67156 7.66212C9.69725 7.48381 10.6715 8.17637 10.8401 9.20375C11.0087 10.2311 10.3069 11.1987 9.27794 11.3576C8.26275 11.5143 7.31081 10.8239 7.14444 9.81019C6.97812 8.7965 7.6595 7.83806 8.67156 7.66212Z" fill="var(--fill-0, white)"/>
</g>
<defs>
<clipPath id="clip0_0_45591">
<rect width="64" height="65" fill="white"/>
</clipPath>
</defs>
</svg>
