<svg preserveAspectRatio="none" width="100%" height="100%" overflow="visible" style="display: block;" viewBox="0 0 64 65" fill="none" xmlns="http://www.w3.org/2000/svg">
<g id="washing-machine-2 1 [Vectorized]">
<path id="Vector" d="M30.9188 4.27047C30.9632 4.28379 31.051 4.31344 31.0771 4.34817C31.7437 5.2351 32.5951 6.63219 33.1682 7.53013C35.9115 11.8291 41.5452 20.7458 41.7099 25.7218C41.778 28.4963 40.7506 31.1859 38.85 33.2084C36.9973 35.1846 33.8349 36.6361 31.1636 36.7189C29.2783 36.7168 27.0813 36.0024 25.4348 35.0699C22.0664 33.1623 19.7675 28.7811 20.3569 24.9081C21.0511 20.8292 23.1899 17.1452 25.1224 13.5549C26.1842 11.5824 27.1036 10.0339 28.3798 8.21756C29.2076 7.03944 30.1704 5.5042 30.9188 4.27047ZM31.0787 18.6541C32.6484 21.037 34.111 23.4888 35.462 26.0022C35.7308 26.5089 36.0165 26.9888 36.2822 27.4878C36.5585 28.0066 36.7072 28.8713 36.9304 29.3873C37.0369 29.3714 37.0463 29.3712 37.1079 29.2867C37.7903 28.3502 38.0554 26.1707 37.8553 25.0123C37.6171 23.6334 36.9668 22.1834 36.3876 20.9113C35.9631 19.9787 31.477 11.5391 30.9955 11.1851C30.9802 11.1739 30.964 11.1639 30.9483 11.1532C30.2378 12.2857 29.6617 13.4761 28.9271 14.6683C26.8966 17.9638 24.8148 21.7212 24.0627 25.5521C23.8562 26.6036 24.4874 28.6522 25.0338 29.5389C25.2929 28.6784 25.5341 27.8185 25.9192 27.0036C26.3287 26.1369 26.7679 25.2698 27.2489 24.4403C27.5764 23.8756 30.7672 18.8119 30.9856 18.6933C31.0395 18.664 31.0303 18.669 31.0787 18.6541ZM31.0657 32.8194C32.4243 32.6122 33.3736 31.7013 33.1094 30.315C32.9368 29.4091 31.5759 26.2556 30.9399 25.7305C29.8948 27.6101 26.8171 32.4925 31.0657 32.8194Z" fill="var(--fill-0, white)"/>
<path id="Vector_2" d="M45.7993 39.4116C48.7179 39.4972 51.731 39.3563 54.6672 39.4481L54.6753 44.9571C54.6751 45.8311 54.706 46.9834 54.6611 47.8327C55.8974 47.8584 57.1338 47.8714 58.3703 47.8718L58.3772 53.8971C58.377 54.8665 58.409 56.0942 58.3646 57.0394C60.2413 57.1101 62.159 57.0153 64 57.0988V60.8429C62.9256 60.9003 61.6152 60.8674 60.5207 60.8669L54.5454 60.8653L36.0271 60.8644L12.1964 60.8641L4.5174 60.8687C3.0379 60.8702 1.46832 60.9002 0 60.8538V57.0717C1.57756 57.0716 3.30682 57.0382 4.87225 57.0861C4.82574 54.0336 4.88243 50.9221 4.86658 47.8633L8.66669 47.8632C8.57156 45.1259 8.73063 42.2093 8.66138 39.4491C10.3338 39.3876 12.1294 39.415 13.8094 39.4178C14.9171 39.4196 16.4484 39.3769 17.5337 39.4586C17.5464 40.7169 17.5414 41.9754 17.5186 43.2337C16.4802 43.1526 15.2136 43.2386 14.1561 43.2217C13.6072 43.213 13.11 43.2835 12.5529 43.2034C12.5244 44.7431 12.5667 46.3091 12.5275 47.8357C16.6784 47.9275 20.8956 47.8139 25.0491 47.8617C26.6449 47.8801 28.5458 47.7999 30.114 47.8769C30.1172 45.3394 30.149 42.7291 30.1143 40.1964C31.2451 40.1681 32.7552 40.1225 33.8773 40.2203C33.8679 42.6359 33.957 45.4582 33.8674 47.8254C37.9598 47.9727 42.246 47.7944 46.3597 47.8614C47.7617 47.8843 49.4358 47.7998 50.7918 47.8746C50.7722 46.3317 50.8039 44.7786 50.7945 43.2338C49.6687 43.2186 46.8036 43.1353 45.7739 43.2527C45.7946 41.9724 45.8031 40.692 45.7993 39.4116ZM8.61475 57.0397C10.694 57.1128 12.9322 57.0752 15.025 57.0751H25.6369L54.6236 57.0722C54.5835 55.2816 54.6371 53.4761 54.6024 51.6799C50.9812 51.7404 47.2057 51.6831 43.5694 51.6829L21.978 51.6833L12.5826 51.684C11.8615 51.6843 9.18694 51.7539 8.64244 51.6686C8.60588 53.4114 8.68975 55.3522 8.61475 57.0397Z" fill="var(--fill-0, white)"/>
</g>
</svg>
