<svg preserveAspectRatio="none" width="100%" height="100%" overflow="visible" style="display: block;" viewBox="0 0 65 65" fill="none" xmlns="http://www.w3.org/2000/svg">
<g id="fridge-2 1 [Vectorized]">
<path id="Vector" d="M7.64169 0H57.0107C56.9149 0.457936 56.9718 3.5601 56.971 4.19488L56.9568 14.818L56.9741 48.1657L56.9746 58.7389C56.9745 60.7017 57.0237 62.944 56.9397 64.8794L57.134 64.8896C57.2602 64.7182 57.1878 63.2624 57.1874 62.9528L57.1908 54.237L57.1919 12.5296L57.1915 4.10346C57.1913 3.2294 57.1288 0.848472 57.2275 0.0967154L57.3715 0.0850154L57.3666 43.9474L57.3669 57.9148C57.3669 60.1373 57.4405 62.8108 57.3599 65H7.65064C7.58107 62.6213 7.64105 59.9316 7.64105 57.533V43.1992L7.64169 0ZM11.4476 53.5196C13.7392 53.4298 16.7729 53.5178 19.1014 53.5206C22.8819 53.5253 26.7854 53.4622 30.5459 53.5395C30.6397 52.3489 30.5808 50.6808 30.5805 49.4462L30.5815 42.028L30.5824 16.452L30.5817 8.1257C30.5814 6.8304 30.5228 5.10247 30.5956 3.85142L17.1184 3.84436L13.5831 3.85347C13.0639 3.85739 11.9846 3.89552 11.5192 3.82941C11.4241 4.14189 11.4599 6.57706 11.4604 7.07046L11.4654 14.1512L11.4663 39.7867C11.4665 44.3138 11.5393 49.0163 11.4476 53.5196ZM34.4584 47.8159C34.2591 48.4449 34.4481 52.5102 34.3941 53.5015C39.689 53.5878 45.0046 53.4683 50.3017 53.521C50.7432 53.5254 53.1845 53.5886 53.5182 53.4932C53.5503 51.6893 53.5693 49.6552 53.5397 47.8458C49.0499 47.7501 44.4034 47.8069 39.9032 47.8095L36.3714 47.8194C35.9006 47.8231 34.891 47.8695 34.4584 47.8159ZM11.4695 57.3673C11.4663 58.588 11.4937 59.9593 11.4472 61.168C12.8019 61.1337 14.2828 61.1702 15.652 61.1705L24.2095 61.1716L53.5305 61.1672L53.5441 57.3911L24.1274 57.3731L15.6182 57.3756C14.5658 57.3766 12.4078 57.4499 11.4695 57.3673ZM34.4029 3.84455C34.4485 6.70427 34.4124 9.65358 34.4124 12.5184L34.412 28.6326L34.4119 38.647C34.4123 40.2439 34.4749 42.3678 34.3929 43.9343C39.4244 44.0699 44.5209 43.9003 49.5598 43.9672C49.9995 43.973 53.2839 44.0149 53.5478 43.9287C53.5031 42.0511 53.5354 40.0489 53.5364 38.1626L53.5394 27.9388L53.5502 3.86368C49.1434 3.81054 44.6947 3.84312 40.2833 3.84488L36.3622 3.84737C35.7702 3.84819 34.9769 3.88373 34.4029 3.84455Z" fill="var(--fill-0, white)"/>
<path id="Vector_2" d="M15.7256 7.64232C19.3623 7.60697 23.1498 7.61928 26.7832 7.65565C26.7107 8.3014 26.7636 10.1378 26.7637 10.8836L26.7641 17.5859L26.7659 32.8594C26.7791 35.9424 26.7703 39.0255 26.7395 42.1084C25.531 42.0564 24.1862 42.1474 22.9518 42.1331L22.9281 42.8625C22.9289 43.8876 22.922 44.9126 22.9074 45.9375C22.334 45.8761 19.7031 45.907 19.094 45.9488C19.132 44.6914 19.1142 43.3716 19.1141 42.1098C17.9709 42.1568 16.3556 42.0184 15.2728 42.1426C15.3698 39.4222 15.2909 36.2014 15.2911 33.4404L15.2915 16.8729L15.2872 11.1677C15.2852 10.1385 15.2452 8.73787 15.3215 7.7496C15.4776 7.61497 15.4715 7.65788 15.7256 7.64232ZM19.1031 38.189C20.204 38.2088 21.9027 38.1665 22.926 38.2345L22.9373 22.9884C22.1147 22.9919 19.8075 23.0575 19.1233 22.9753C19.0112 27.9483 19.1141 33.1913 19.1031 38.189ZM19.0967 19.077C20.2834 19.1106 21.8137 19.0651 22.9439 19.1312C22.9114 18.3426 22.9013 17.4102 22.9295 16.6187C22.989 14.9535 22.8445 13.1473 22.9516 11.5007C22.2361 11.491 21.5205 11.4891 20.8049 11.4953C20.3422 11.5026 19.5394 11.5496 19.1074 11.4827C19.1044 13.9721 19.1506 16.6017 19.0967 19.077Z" fill="var(--fill-0, white)"/>
<path id="Vector_3" d="M38.2875 22.942C39.5353 22.9268 40.8071 22.9366 42.056 22.936L42.0551 28.9684C42.0529 29.9557 42.0048 31.5426 42.0768 32.478C41.6317 32.5687 38.8426 32.5145 38.2025 32.5084C38.3278 31.1274 38.0314 23.547 38.2875 22.942Z" fill="var(--fill-0, white)"/>
<path id="Vector_4" d="M57.0107 0H57.3944L57.3715 0.0850154L57.2275 0.0967154C57.1288 0.848472 57.1913 3.2294 57.1915 4.10346L57.1919 12.5296L57.1908 54.237L57.1874 62.9528C57.1878 63.2624 57.2602 64.7182 57.1341 64.8896L56.9397 64.8794C57.0237 62.944 56.9745 60.7017 56.9746 58.7389L56.9741 48.1657L56.9568 14.818L56.971 4.19488C56.9718 3.5601 56.9149 0.457936 57.0107 0Z" fill="var(--fill-0, white)" fill-opacity="0.976471"/>
</g>
</svg>
