<svg preserveAspectRatio="none" width="100%" height="100%" overflow="visible" style="display: block;" viewBox="0 0 64 65" fill="none" xmlns="http://www.w3.org/2000/svg">
<g id="washing-machine-2 1 [Vectorized]">
<path id="Vector" d="M0 4.81084L41.7443 4.80856L56.394 4.80883C58.6743 4.80898 61.7854 4.71907 64 4.83121V60.1964C62.7313 60.2585 61.1931 60.2175 59.8997 60.216L52.7132 60.2114L30.3114 60.211L9.74056 60.2118L3.30056 60.2155C2.35704 60.2184 0.889744 60.2741 0 60.2246V4.81084ZM60.7313 38.6899C60.805 35.4722 60.7526 32.0752 60.7526 28.8466L60.7557 8.6085L16.5218 8.57944L6.98994 8.579C6.34794 8.57937 3.71037 8.66594 3.27117 8.53737C3.0711 17.048 3.38255 25.6676 3.25457 34.1887C3.23237 35.6667 3.2323 37.2074 3.25935 38.6864C3.99731 38.6356 4.84814 38.6842 5.6013 38.6856L10.2858 38.6874L25.1982 38.6862L48.7838 38.685C52.6651 38.6848 56.8944 38.5962 60.7313 38.6899ZM60.6669 56.4147C60.8211 56.1753 60.7451 43.9177 60.7568 42.4909L19.9697 42.4726L8.38356 42.4732L5.38984 42.4806C4.76401 42.4864 3.87434 42.5311 3.28903 42.4496C3.1777 43.3447 3.25199 46.1103 3.25682 47.1594C3.27096 50.2322 3.22123 53.3529 3.26155 56.4199C3.93954 56.3737 4.71304 56.4159 5.40201 56.4216L8.80931 56.4254L20.712 56.425L60.6669 56.4147Z" fill="var(--fill-0, white)"/>
<path id="Vector_2" d="M22.7325 16.4639C23.1232 16.0887 26.2605 12.7536 26.8547 12.5811C26.9609 12.5503 28.0371 13.5946 28.307 13.8271C28.5377 14.0257 29.311 14.7984 29.5234 15.1041C28.2441 16.4189 26.7444 17.7813 25.4035 19.1096C26.0617 20.6904 26.5623 21.6826 26.5761 23.4671C26.5901 25.2789 26.205 26.3558 25.3848 27.9234C26.8794 29.7571 28.1117 30.5316 29.5313 32.1274C28.7242 33.0736 27.5276 33.9403 26.9188 34.6927L26.8576 34.7132C26.5451 34.7033 23.3074 31.2597 22.6782 30.7565C19.3952 32.4759 17.1486 32.3046 13.8753 30.7493C13.4219 31.2533 10.0762 34.5233 9.69156 34.6558C9.29631 34.4706 7.50669 32.5782 7.08788 32.1526C8.42981 30.687 9.8975 29.4554 11.1176 27.8953C9.37606 24.9579 9.68644 22.0918 11.1146 19.1183C9.76744 17.8519 8.46175 16.3852 7.09781 15.1399C7.485 14.5662 9.11519 12.9979 9.66256 12.4923C10.1349 12.7018 13.2911 15.8433 13.8884 16.4402C14.4366 16.2319 14.9808 15.9094 15.5808 15.7217C18.3615 14.8514 20.2489 15.2609 22.7325 16.4639ZM18.7843 28.0465C21.2758 27.7852 23.078 25.5452 22.7999 23.0556C22.5218 20.5659 20.2698 18.7789 17.7821 19.0737C15.3179 19.3658 13.5514 21.5918 13.8269 24.0579C14.1023 26.5239 16.3165 28.3054 18.7843 28.0465Z" fill="var(--fill-0, white)"/>
<path id="Vector_3" d="M50.1474 16.4676C50.9594 15.4127 52.1546 14.5127 53.0988 13.5779C53.3709 13.3084 54.0342 12.5728 54.3934 12.6084C54.8029 12.8673 56.6049 14.6824 56.9099 15.1079L52.904 19.1099C53.5688 20.703 54.0677 21.7032 54.0762 23.4984C54.0847 25.2957 53.6995 26.3664 52.8847 27.9233C54.1086 29.4266 55.5612 30.7196 56.9074 32.1271C56.2955 32.8252 55.0711 33.9958 54.3694 34.6963C54.3019 34.7053 54.2445 34.713 54.197 34.7194C52.9506 33.4002 51.4499 32.0771 50.1243 30.7583C49.3443 31.0587 48.8092 31.4313 47.9064 31.666C45.4799 32.2968 43.4441 31.9125 41.3056 30.7309C40.6707 31.3346 37.7349 34.3809 37.2454 34.6474C36.8796 34.5912 34.8279 32.5362 34.4771 32.1659C35.1532 31.2988 35.8094 30.7931 36.6134 30.0656C37.3621 29.3882 37.9979 28.6901 38.6174 27.8956C36.8731 24.9659 37.1905 22.0838 38.615 19.1173L34.4574 15.0992C35.2684 14.1248 36.2353 13.3546 37.1623 12.4933C37.6123 12.6844 40.6313 15.8713 41.332 16.4742C41.8096 16.1866 42.3137 15.9454 42.8374 15.7539C45.5311 14.7843 47.6886 15.3162 50.1474 16.4676ZM46.0951 28.0529C48.5729 27.8301 50.4031 25.6439 50.1866 23.1654C49.9701 20.6869 47.7886 18.8512 45.3096 19.0613C42.8216 19.2722 40.9778 21.4634 41.1951 23.9508C41.4123 26.4383 43.6081 28.2765 46.0951 28.0529Z" fill="var(--fill-0, white)"/>
<path id="Vector_4" d="M26.3719 47.5307C30.1616 47.5648 33.9669 47.4879 37.7589 47.5482C37.7459 48.0879 37.8482 51.0549 37.6676 51.2901C34.9914 51.3967 32.0342 51.2354 29.333 51.3006C28.3621 51.3239 27.1927 51.2348 26.2548 51.3119C26.2537 50.7614 26.1336 47.8646 26.3719 47.5307Z" fill="var(--fill-0, white)"/>
<path id="Vector_5" d="M7.66681 47.5296C8.71237 47.5263 9.758 47.5329 10.8034 47.5495C10.7686 48.2202 10.9235 50.9592 10.6692 51.2808L10.412 51.3019C9.32137 51.3067 8.10562 51.2514 7.03187 51.297C7.08794 50.4261 6.95731 48.3411 7.09737 47.6289C7.24481 47.5049 7.46694 47.5316 7.66681 47.5296Z" fill="var(--fill-0, white)"/>
<path id="Vector_6" d="M46.1668 47.5297C47.2124 47.5262 48.258 47.5328 49.3035 47.5495C49.2685 48.2206 49.4236 50.959 49.1692 51.2809L48.9126 51.3018C47.8164 51.307 46.6132 51.253 45.5319 51.2965C45.5873 50.4283 45.4578 48.3381 45.5974 47.629C45.7448 47.5049 45.9669 47.5316 46.1668 47.5297Z" fill="var(--fill-0, white)"/>
<path id="Vector_7" d="M53.1706 47.5675C54.1987 47.4928 55.476 47.5379 56.5377 47.5254C56.5714 47.9459 56.7155 50.7258 56.5287 50.9877C56.2904 51.3218 54.1701 51.1594 53.6169 51.2569C53.4406 51.2879 53.4166 51.2922 53.2458 51.2413C53.1066 51.0536 53.1989 48.0828 53.1706 47.5675Z" fill="var(--fill-0, white)"/>
<path id="Vector_8" d="M14.6705 47.5675C15.6747 47.4937 16.9734 47.5317 18.0026 47.5396C18.2974 48.6246 18.0006 50.1594 18.0317 51.1527C17.6201 51.1662 15.3871 51.209 15.1168 51.2567C14.9405 51.2879 14.9166 51.2922 14.7458 51.2414C14.6064 51.0534 14.699 48.0832 14.6705 47.5675Z" fill="var(--fill-0, white)"/>
<path id="Vector_9" d="M18.0026 47.5396C18.252 47.5449 18.2263 47.5061 18.4004 47.6294C18.5201 48.3899 18.3907 50.3971 18.4443 51.2878C17.8039 51.3027 15.6596 51.3498 15.1168 51.2567C15.3871 51.209 17.6201 51.1662 18.0318 51.1527C18.0006 50.1594 18.2974 48.6246 18.0026 47.5396Z" fill="var(--fill-0, black)" fill-opacity="0.964706"/>
<path id="Vector_10" d="M56.5378 47.5254C56.782 47.5517 56.7666 47.5096 56.9097 47.6493C57.0049 48.7078 56.8992 50.1627 56.9439 51.2877C56.2939 51.3024 54.1736 51.3506 53.6169 51.2569C54.1701 51.1594 56.2904 51.3218 56.5287 50.9877C56.7155 50.7258 56.5714 47.9459 56.5378 47.5254Z" fill="var(--fill-0, black)" fill-opacity="0.968627"/>
</g>
</svg>
