<svg preserveAspectRatio="none" width="100%" height="100%" overflow="visible" style="display: block;" viewBox="0 0 46 46" fill="none" xmlns="http://www.w3.org/2000/svg">
<g id="building 1" clip-path="url(#clip0_0_45368)">
<path id="Vector" d="M10.5217 22.2029H5.03889C4.86684 22.2029 4.7274 22.3423 4.7274 22.5144V26.1626C4.7274 26.3347 4.86684 26.4741 5.03889 26.4741H10.5217C10.6937 26.4741 10.8332 26.3347 10.8332 26.1626V22.5144C10.8332 22.3423 10.6937 22.2029 10.5217 22.2029Z" fill="var(--fill-0, #55A2F0)"/>
<path id="Vector_2" d="M10.5216 22.2029H7.78195V26.4741H10.5216C10.6937 26.4741 10.8331 26.3347 10.8331 26.1626V22.5144C10.8331 22.3423 10.6937 22.2029 10.5216 22.2029Z" fill="var(--fill-0, #4B9EE2)"/>
<path id="Vector_3" d="M36.2165 5.2413C35.8392 5.2413 35.5333 5.54713 35.5333 5.92447V12.806C35.5333 13.1834 35.8392 13.4892 36.2165 13.4892C36.5939 13.4892 36.8997 13.1834 36.8997 12.806V5.92447C36.8997 5.54722 36.5939 5.2413 36.2165 5.2413Z" fill="var(--fill-0, #2D5872)"/>
<path id="Vector_4" d="M37.3661 15.4055H35.0668C34.6702 15.4055 34.3486 15.0839 34.3486 14.6873V12.1747C34.3486 11.778 34.6702 11.4565 35.0668 11.4565H37.3661C37.7628 11.4565 38.0843 11.778 38.0843 12.1747V14.6873C38.0843 15.0839 37.7628 15.4055 37.3661 15.4055Z" fill="var(--fill-0, #FF4C4C)"/>
<path id="Vector_5" d="M40.6109 22.6896H31.8222C31.4443 22.6896 31.138 22.3833 31.138 22.0055V15.372C31.138 14.9941 31.4443 14.6878 31.8222 14.6878H40.6109C40.9888 14.6878 41.2951 14.9942 41.2951 15.372V22.0055C41.2951 22.3833 40.9888 22.6896 40.6109 22.6896Z" fill="var(--fill-0, #F33A3A)"/>
<path id="Vector_6" d="M43.4257 45.9999H28.0036V17.9623H43.047C43.2562 17.9623 43.4257 18.1319 43.4257 18.341V45.9999Z" fill="var(--fill-0, #FF4C4C)"/>
<path id="Vector_7" d="M43.0469 17.9623H38.858C39.0671 17.9623 39.2367 18.1319 39.2367 18.341V45.9999H43.4256V18.341C43.4256 18.1319 43.2561 17.9623 43.0469 17.9623Z" fill="var(--fill-0, #F33A3A)"/>
<g id="Group">
<path id="Vector_8" d="M40.5415 24.6455H31.7043C31.3915 24.6455 31.138 24.3919 31.138 24.0792V22.7693C31.138 22.4565 31.3916 22.203 31.7043 22.203H40.5415C40.8544 22.203 41.1079 22.4566 41.1079 22.7693V24.0792C41.1079 24.3919 40.8544 24.6455 40.5415 24.6455Z" fill="var(--fill-0, #E1EFFB)"/>
<path id="Vector_9" d="M40.5413 30.2457H31.7041C31.3913 30.2457 31.1378 29.992 31.1378 29.6793V28.3695C31.1378 28.0566 31.3914 27.8031 31.7041 27.8031H40.5413C40.8542 27.8031 41.1077 28.0567 41.1077 28.3695V29.6793C41.1077 29.992 40.8542 30.2457 40.5413 30.2457Z" fill="var(--fill-0, #E1EFFB)"/>
<path id="Vector_10" d="M40.5413 35.8458H31.7041C31.3913 35.8458 31.1378 35.5922 31.1378 35.2794V33.9696C31.1378 33.6568 31.3914 33.4032 31.7041 33.4032H40.5413C40.8542 33.4032 41.1077 33.6569 41.1077 33.9696V35.2794C41.1077 35.5922 40.8542 35.8458 40.5413 35.8458Z" fill="var(--fill-0, #E1EFFB)"/>
<path id="Vector_11" d="M40.5413 41.4459H31.7041C31.3913 41.4459 31.1378 41.1923 31.1378 40.8796V39.5697C31.1378 39.2569 31.3914 39.0034 31.7041 39.0034H40.5413C40.8542 39.0034 41.1077 39.257 41.1077 39.5697V40.8796C41.1077 41.1924 40.8542 41.4459 40.5413 41.4459Z" fill="var(--fill-0, #E1EFFB)"/>
</g>
<path id="Vector_12" d="M32.013 45.9999H14.2042C13.9194 45.9999 13.6886 45.7691 13.6886 45.4843V1.34048C13.6886 1.05567 13.9194 0.824864 14.2042 0.824864H32.013C32.2978 0.824864 32.5286 1.05567 32.5286 1.34048V45.4843C32.5286 45.7691 32.2978 45.9999 32.013 45.9999Z" fill="var(--fill-0, #FFB125)"/>
<g id="Group_2">
<path id="Vector_13" d="M32.0131 0.824864H27.8242C28.109 0.824864 28.3398 1.05567 28.3398 1.34048V45.4843C28.3398 45.7691 28.109 45.9999 27.8242 45.9999H32.0131C32.2979 45.9999 32.5287 45.7691 32.5287 45.4843V1.34048C32.5287 1.05567 32.2978 0.824864 32.0131 0.824864Z" fill="var(--fill-0, #FF901D)"/>
<path id="Vector_14" d="M33.338 0H12.6618C12.5205 0 12.4058 0.114551 12.4058 0.255964V1.99138C12.4058 2.13271 12.5204 2.24735 12.6618 2.24735H33.338C33.4794 2.24735 33.594 2.1328 33.594 1.99138V0.255964C33.594 0.114551 33.4794 0 33.338 0Z" fill="var(--fill-0, #FF901D)"/>
</g>
<g id="Group_3">
<path id="Vector_15" d="M18.8552 8.43631H16.3498C16.1733 8.43631 16.0302 8.29328 16.0302 8.11674V5.05757C16.0302 4.88111 16.1732 4.73799 16.3498 4.73799H18.8552C19.0317 4.73799 19.1748 4.88102 19.1748 5.05757V8.11683C19.1748 8.29328 19.0317 8.43631 18.8552 8.43631Z" fill="var(--fill-0, #E1EFFB)"/>
<path id="Vector_16" d="M24.3615 8.4363H21.8561C21.6796 8.4363 21.5365 8.29327 21.5365 8.11672V5.05755C21.5365 4.8811 21.6795 4.73798 21.8561 4.73798H24.3615C24.538 4.73798 24.6811 4.88101 24.6811 5.05755V8.11681C24.681 8.29327 24.538 8.4363 24.3615 8.4363Z" fill="var(--fill-0, #E1EFFB)"/>
<path id="Vector_17" d="M29.8678 8.4363H27.3623C27.1859 8.4363 27.0428 8.29327 27.0428 8.11672V5.05755C27.0428 4.8811 27.1858 4.73798 27.3623 4.73798H29.8678C30.0443 4.73798 30.1874 4.88101 30.1874 5.05755V8.11681C30.1874 8.29327 30.0443 8.4363 29.8678 8.4363Z" fill="var(--fill-0, #E1EFFB)"/>
<path id="Vector_18" d="M18.8552 16.6887H16.3498C16.1733 16.6887 16.0302 16.5457 16.0302 16.3691V13.3099C16.0302 13.1334 16.1732 12.9903 16.3498 12.9903H18.8552C19.0317 12.9903 19.1748 13.1333 19.1748 13.3099V16.3691C19.1748 16.5457 19.0317 16.6887 18.8552 16.6887Z" fill="var(--fill-0, #E1EFFB)"/>
<path id="Vector_19" d="M24.3615 16.6887H21.8561C21.6796 16.6887 21.5365 16.5457 21.5365 16.3691V13.3099C21.5365 13.1334 21.6795 12.9903 21.8561 12.9903H24.3615C24.538 12.9903 24.6811 13.1333 24.6811 13.3099V16.3691C24.681 16.5457 24.538 16.6887 24.3615 16.6887Z" fill="var(--fill-0, #E1EFFB)"/>
<path id="Vector_20" d="M29.8678 16.6887H27.3623C27.1859 16.6887 27.0428 16.5457 27.0428 16.3691V13.3099C27.0428 13.1334 27.1858 12.9903 27.3623 12.9903H29.8678C30.0443 12.9903 30.1874 13.1333 30.1874 13.3099V16.3691C30.1874 16.5457 30.0443 16.6887 29.8678 16.6887Z" fill="var(--fill-0, #E1EFFB)"/>
<path id="Vector_21" d="M18.8552 24.9411H16.3498C16.1733 24.9411 16.0302 24.7981 16.0302 24.6215V21.5623C16.0302 21.3858 16.1732 21.2427 16.3498 21.2427H18.8552C19.0317 21.2427 19.1748 21.3857 19.1748 21.5623V24.6215C19.1748 24.7981 19.0317 24.9411 18.8552 24.9411Z" fill="var(--fill-0, #E1EFFB)"/>
<path id="Vector_22" d="M24.3615 24.9411H21.8561C21.6796 24.9411 21.5365 24.7981 21.5365 24.6215V21.5623C21.5365 21.3858 21.6795 21.2427 21.8561 21.2427H24.3615C24.538 21.2427 24.6811 21.3857 24.6811 21.5623V24.6215C24.681 24.7981 24.538 24.9411 24.3615 24.9411Z" fill="var(--fill-0, #E1EFFB)"/>
<path id="Vector_23" d="M29.8678 24.9411H27.3623C27.1859 24.9411 27.0428 24.7981 27.0428 24.6215V21.5623C27.0428 21.3858 27.1858 21.2427 27.3623 21.2427H29.8678C30.0443 21.2427 30.1874 21.3857 30.1874 21.5623V24.6215C30.1874 24.7981 30.0443 24.9411 29.8678 24.9411Z" fill="var(--fill-0, #E1EFFB)"/>
<path id="Vector_24" d="M24.3615 33.1935H21.8561C21.6796 33.1935 21.5365 33.0505 21.5365 32.8739V29.8147C21.5365 29.6382 21.6795 29.4951 21.8561 29.4951H24.3615C24.538 29.4951 24.6811 29.6381 24.6811 29.8147V32.8739C24.681 33.0505 24.538 33.1935 24.3615 33.1935Z" fill="var(--fill-0, #E1EFFB)"/>
<path id="Vector_25" d="M29.8678 33.1935H27.3623C27.1859 33.1935 27.0428 33.0505 27.0428 32.8739V29.8147C27.0428 29.6382 27.1858 29.4951 27.3623 29.4951H29.8678C30.0443 29.4951 30.1874 29.6381 30.1874 29.8147V32.8739C30.1874 33.0505 30.0443 33.1935 29.8678 33.1935Z" fill="var(--fill-0, #E1EFFB)"/>
<path id="Vector_26" d="M24.3615 41.4459H21.8561C21.6796 41.4459 21.5365 41.3029 21.5365 41.1263V38.0671C21.5365 37.8906 21.6795 37.7475 21.8561 37.7475H24.3615C24.538 37.7475 24.6811 37.8905 24.6811 38.0671V41.1263C24.681 41.3029 24.538 41.4459 24.3615 41.4459Z" fill="var(--fill-0, #E1EFFB)"/>
<path id="Vector_27" d="M29.8678 41.4459H27.3623C27.1859 41.4459 27.0428 41.3029 27.0428 41.1263V38.0671C27.0428 37.8906 27.1858 37.7475 27.3623 37.7475H29.8678C30.0443 37.7475 30.1874 37.8905 30.1874 38.0671V41.1263C30.1874 41.3029 30.0443 41.4459 29.8678 41.4459Z" fill="var(--fill-0, #E1EFFB)"/>
</g>
<path id="Vector_28" d="M21.9154 45.9999H2.968C2.75049 45.9999 2.57422 45.8236 2.57422 45.6061V25.5321C2.57422 25.3146 2.75049 25.1383 2.968 25.1383H21.9154C22.1329 25.1383 22.3092 25.3146 22.3092 25.5321V45.6062C22.3092 45.8236 22.1329 45.9999 21.9154 45.9999Z" fill="var(--fill-0, #61AFF6)"/>
<path id="Vector_29" d="M21.9153 25.1383H17.6509C17.8685 25.1383 18.0447 25.3146 18.0447 25.5321V45.6062C18.0447 45.8237 17.8685 46 17.6509 46H21.9153C22.1327 46 22.3091 45.8237 22.3091 45.6062V25.5321C22.3091 25.3146 22.1328 25.1383 21.9153 25.1383Z" fill="var(--fill-0, #55A2F0)"/>
<g id="Group_4">
<path id="Vector_30" d="M7.78203 30.832H5.30226C5.08394 30.832 4.90695 30.655 4.90695 30.4367V28.8573C4.90695 28.639 5.08394 28.462 5.30226 28.462H7.78203C8.00035 28.462 8.17734 28.639 8.17734 28.8573V30.4367C8.17734 30.655 8.00035 30.832 7.78203 30.832Z" fill="var(--fill-0, #E1EFFB)"/>
<path id="Vector_31" d="M13.5548 30.832H11.0751C10.8567 30.832 10.6798 30.655 10.6798 30.4367V28.8574C10.6798 28.639 10.8567 28.462 11.0751 28.462H13.5548C13.7732 28.462 13.9502 28.639 13.9502 28.8574V30.4367C13.9502 30.655 13.7732 30.832 13.5548 30.832Z" fill="var(--fill-0, #E1EFFB)"/>
<path id="Vector_32" d="M19.3274 30.832H16.8477C16.6294 30.832 16.4524 30.655 16.4524 30.4367V28.8574C16.4524 28.639 16.6294 28.462 16.8477 28.462H19.3274C19.5458 28.462 19.7228 28.639 19.7228 28.8574V30.4367C19.7228 30.655 19.5458 30.832 19.3274 30.832Z" fill="var(--fill-0, #E1EFFB)"/>
<path id="Vector_33" d="M7.78224 36.3753H5.30247C5.08415 36.3753 4.90716 36.1983 4.90716 35.98V34.4006C4.90716 34.1823 5.08415 34.0053 5.30247 34.0053H7.78224C8.00056 34.0053 8.17755 34.1823 8.17755 34.4006V35.98C8.17755 36.1983 8.00056 36.3753 7.78224 36.3753Z" fill="var(--fill-0, #E1EFFB)"/>
<path id="Vector_34" d="M13.5548 36.3753H11.0751C10.8567 36.3753 10.6798 36.1983 10.6798 35.98V34.4006C10.6798 34.1823 10.8567 34.0053 11.0751 34.0053H13.5548C13.7732 34.0053 13.9502 34.1823 13.9502 34.4006V35.98C13.9502 36.1983 13.7732 36.3753 13.5548 36.3753Z" fill="var(--fill-0, #E1EFFB)"/>
<path id="Vector_35" d="M19.3274 36.3753H16.8477C16.6294 36.3753 16.4524 36.1983 16.4524 35.98V34.4006C16.4524 34.1823 16.6294 34.0053 16.8477 34.0053H19.3274C19.5458 34.0053 19.7228 34.1823 19.7228 34.4006V35.98C19.7228 36.1983 19.5458 36.3753 19.3274 36.3753Z" fill="var(--fill-0, #E1EFFB)"/>
<path id="Vector_36" d="M7.78224 41.9185H5.30247C5.08415 41.9185 4.90716 41.7415 4.90716 41.5232V39.9439C4.90716 39.7255 5.08415 39.5486 5.30247 39.5486H7.78224C8.00056 39.5486 8.17755 39.7255 8.17755 39.9439V41.5232C8.17755 41.7415 8.00056 41.9185 7.78224 41.9185Z" fill="var(--fill-0, #E1EFFB)"/>
<path id="Vector_37" d="M13.5548 41.9185H11.0751C10.8567 41.9185 10.6798 41.7415 10.6798 41.5232V39.9439C10.6798 39.7255 10.8567 39.5486 11.0751 39.5486H13.5548C13.7732 39.5486 13.9502 39.7255 13.9502 39.9439V41.5232C13.9502 41.7415 13.7732 41.9185 13.5548 41.9185Z" fill="var(--fill-0, #E1EFFB)"/>
<path id="Vector_38" d="M19.3274 41.9185H16.8477C16.6294 41.9185 16.4524 41.7415 16.4524 41.5232V39.9439C16.4524 39.7255 16.6294 39.5486 16.8477 39.5486H19.3274C19.5458 39.5486 19.7228 39.7255 19.7228 39.9439V41.5232C19.7228 41.7415 19.5458 41.9185 19.3274 41.9185Z" fill="var(--fill-0, #E1EFFB)"/>
</g>
<path id="Vector_39" d="M44.0549 43.8895H1.945C1.36219 43.8895 0.889788 44.3619 0.889788 44.9447C0.889788 45.5275 1.36219 45.9999 1.945 45.9999H44.055C44.6378 45.9999 45.1102 45.5275 45.1102 44.9447C45.1101 44.362 44.6377 43.8895 44.0549 43.8895Z" fill="var(--fill-0, #2D5872)"/>
<path id="Vector_40" d="M45.1034 44.8289C45.1026 44.8219 45.1012 44.8151 45.1003 44.8081C45.0962 44.7761 45.0909 44.7444 45.0838 44.7134C45.0829 44.709 45.0815 44.7046 45.0804 44.7002C45.0723 44.6662 45.0626 44.6329 45.0513 44.6001C45.0509 44.5988 45.0504 44.5976 45.05 44.5963C45.0376 44.561 45.0234 44.5266 45.0075 44.4931V44.493C44.8381 44.1365 44.4758 43.8894 44.0549 43.8894H40.9211V44.1581C40.9211 44.6763 40.501 45.0965 39.9827 45.0965H1.945C1.52408 45.0965 1.16174 44.8495 0.992389 44.493C0.927253 44.6301 0.889788 44.7828 0.889788 44.9446C0.889788 45.5273 1.36219 45.9998 1.945 45.9998H40.9211H44.0549C44.6377 45.9998 45.1101 45.5274 45.1101 44.9446C45.1101 44.9055 45.1076 44.8669 45.1034 44.8289Z" fill="var(--fill-0, #1D4859)"/>
</g>
<defs>
<clipPath id="clip0_0_45368">
<rect width="46" height="46" fill="white"/>
</clipPath>
</defs>
</svg>
