<svg preserveAspectRatio="none" width="100%" height="100%" overflow="visible" style="display: block;" viewBox="0 0 24 24" fill="none" xmlns="http://www.w3.org/2000/svg">
<g id="call">
<path id="Vector" d="M5.58984 2.5C5.79983 2.5 6.00539 2.54532 6.18359 2.63086L6.19043 2.63379C6.37615 2.71951 6.53415 2.84382 6.65918 3.02441L6.66211 3.0293L8.98242 6.2998L8.98438 6.30176C9.14626 6.5266 9.25489 6.72279 9.32715 6.89941L9.33008 6.90723C9.40056 7.07171 9.42969 7.21417 9.42969 7.32031C9.42963 7.45958 9.39009 7.61095 9.29297 7.77051L9.28516 7.78418C9.18308 7.96477 9.02399 8.16937 8.80664 8.38672L8.7998 8.39355L8.04004 9.18359C7.83334 9.3938 7.7403 9.65157 7.74023 9.92969C7.74023 10.0571 7.75695 10.1684 7.78516 10.2812L7.79199 10.3086L7.80176 10.3359C7.82104 10.3873 7.84093 10.4322 7.85352 10.4619C7.86782 10.4957 7.87301 10.5097 7.87598 10.5186L7.88965 10.5605L7.91113 10.5996C8.11477 10.9729 8.44966 11.4325 8.89844 11.9629L8.90234 11.9668C9.35743 12.4927 9.84411 13.0312 10.373 13.5703L10.376 13.5732C10.431 13.6283 10.4884 13.6832 10.54 13.7324C10.5933 13.7832 10.6416 13.8291 10.6865 13.874L10.6914 13.8779C10.894 14.0757 10.897 14.396 10.6963 14.5967L8.84668 16.4463C8.67773 16.6152 8.41866 16.6417 8.2168 16.5127L8.13477 16.4473C8.07811 16.3909 8.02231 16.3373 7.9707 16.2881C7.91547 16.2354 7.86433 16.1875 7.81445 16.1377H7.81543C6.80311 15.1155 5.88943 14.0459 5.0752 12.9277H5.07617C4.27379 11.8122 3.63297 10.7044 3.16992 9.61426C2.72114 8.52416 2.50001 7.50081 2.5 6.54004C2.5 5.91936 2.60946 5.33288 2.82422 4.7959L2.8252 4.79297C3.01018 4.32282 3.29097 3.88173 3.67969 3.47559L3.85352 3.30371L3.86035 3.2959C4.42483 2.74024 5.00448 2.50004 5.58984 2.5Z" fill="var(--fill-0, #2A7AE2)" stroke="var(--stroke-0, #2A7AE2)"/>
<path id="Vector_2" d="M21.97 18.33C21.97 18.61 21.92 18.9 21.82 19.18C21.79 19.26 21.76 19.34 21.72 19.42C21.55 19.78 21.33 20.12 21.04 20.44C20.55 20.98 20.01 21.37 19.4 21.62C19.39 21.62 19.38 21.63 19.37 21.63C18.78 21.87 18.14 22 17.45 22C16.43 22 15.34 21.76 14.19 21.27C13.04 20.78 11.89 20.12 10.75 19.29C10.36 19 9.97 18.71 9.6 18.4L12.87 15.13C13.15 15.34 13.4 15.5 13.61 15.61C13.66 15.63 13.72 15.66 13.79 15.69C13.87 15.72 13.95 15.73 14.04 15.73C14.21 15.73 14.34 15.67 14.45 15.56L15.21 14.81C15.46 14.56 15.7 14.37 15.93 14.25C16.16 14.11 16.39 14.04 16.64 14.04C16.83 14.04 17.03 14.08 17.25 14.17C17.47 14.26 17.7 14.39 17.95 14.56L21.26 16.91C21.52 17.09 21.7 17.3 21.81 17.55C21.91 17.8 21.97 18.05 21.97 18.33Z" fill="var(--fill-0, #2A7AE2)"/>
<g id="Vector_3" opacity="0">
</g>
</g>
</svg>
