<svg preserveAspectRatio="none" width="100%" height="100%" overflow="visible" style="display: block;" viewBox="0 0 64 64" fill="none" xmlns="http://www.w3.org/2000/svg">
<g id="Icon">
<path id="Vector" d="M40 56V34.6667C40 33.9594 39.719 33.2811 39.219 32.781C38.7189 32.281 38.0406 32 37.3333 32H26.6667C25.9594 32 25.2811 32.281 24.781 32.781C24.281 33.2811 24 33.9594 24 34.6667V56" stroke="var(--stroke-0, #99A1AF)" stroke-width="5.33333" stroke-linecap="round" stroke-linejoin="round"/>
<path id="Vector_2" d="M8 26.6667C7.99981 25.8908 8.16889 25.1243 8.49543 24.4206C8.82198 23.7168 9.29813 23.0928 9.89067 22.592L28.5573 6.59467C29.52 5.78109 30.7396 5.33472 32 5.33472C33.2604 5.33472 34.48 5.78109 35.4427 6.59467L54.1093 22.592C54.7019 23.0928 55.178 23.7168 55.5046 24.4206C55.8311 25.1243 56.0002 25.8908 56 26.6667V50.6667C56 52.0812 55.4381 53.4377 54.4379 54.4379C53.4377 55.4381 52.0812 56 50.6667 56H13.3333C11.9188 56 10.5623 55.4381 9.5621 54.4379C8.5619 53.4377 8 52.0812 8 50.6667V26.6667Z" stroke="var(--stroke-0, #99A1AF)" stroke-width="5.33333" stroke-linecap="round" stroke-linejoin="round"/>
</g>
</svg>
