<svg preserveAspectRatio="none" width="100%" height="100%" overflow="visible" style="display: block;" viewBox="0 0 32 32" fill="none" xmlns="http://www.w3.org/2000/svg">
<g id="Icon">
<path id="Vector" d="M3 16C3.08333 19.6667 4.35417 22.7292 6.8125 25.1875C9.27083 27.6458 12.3333 28.9167 16 29C19.6667 28.9167 22.7292 27.6458 25.1875 25.1875C27.6458 22.7292 28.9167 19.6667 29 16V7C29 6.29167 28.75 5.70833 28.25 5.25C27.7917 4.75 27.2083 4.5 26.5 4.5H19.625C19.0417 5.45833 18.1667 5.95833 17 6H15C14.1667 5.95833 13.4583 5.66667 12.875 5.125C12.3333 4.54167 12.0417 3.83333 12 3C12.0417 2.16667 12.3333 1.45833 12.875 0.875C13.4583 0.333333 14.1667 0.0416667 15 0H17C18.1667 0.0416667 19.0417 0.541667 19.625 1.5H26.5C28.0417 1.54167 29.3333 2.08333 30.375 3.125C31.4167 4.16667 31.9583 5.45833 32 7V16C31.9583 19 31.2292 21.6875 29.8125 24.0625C28.3958 26.4792 26.4792 28.3958 24.0625 29.8125C21.6875 31.2292 19 31.9583 16 32C13 31.9583 10.3125 31.2292 7.9375 29.8125C5.52083 28.3958 3.60417 26.4792 2.1875 24.0625C0.770833 21.6875 0.0416667 19 0 16V13.5C0.0833333 12.5833 0.583333 12.0833 1.5 12C2.41667 12.0833 2.91667 12.5833 3 13.5V16ZM10 18V11C9.41667 11 8.9375 11.1875 8.5625 11.5625C8.1875 11.9375 8 12.4167 8 13V16C8 16.5833 8.1875 17.0625 8.5625 17.4375C8.9375 17.8125 9.41667 18 10 18ZM5 16V13C5.04167 11.5833 5.52083 10.3958 6.4375 9.4375C7.39583 8.52083 8.58333 8.04167 10 8H11C11.5833 8 12.0625 8.1875 12.4375 8.5625C12.8125 8.9375 13 9.41667 13 10V19C13 19.5833 12.8125 20.0625 12.4375 20.4375C12.0625 20.8125 11.5833 21 11 21H10C8.58333 20.9583 7.39583 20.4792 6.4375 19.5625C5.52083 18.6042 5.04167 17.4167 5 16ZM22 18C22.5833 18 23.0625 17.8125 23.4375 17.4375C23.8125 17.0625 24 16.5833 24 16V13C24 12.4167 23.8125 11.9375 23.4375 11.5625C23.0625 11.1875 22.5833 11 22 11V18ZM27 16C26.9583 17.4167 26.4792 18.6042 25.5625 19.5625C24.6042 20.4792 23.4167 20.9583 22 21H21C20.4167 21 19.9375 20.8125 19.5625 20.4375C19.1875 20.0625 19 19.5833 19 19V10C19 9.41667 19.1875 8.9375 19.5625 8.5625C19.9375 8.1875 20.4167 8 21 8H22C23.4167 8.04167 24.6042 8.52083 25.5625 9.4375C26.4792 10.3958 26.9583 11.5833 27 13V16Z" fill="var(--fill-0, white)"/>
</g>
</svg>
