<svg preserveAspectRatio="none" width="100%" height="100%" overflow="visible" style="display: block;" viewBox="0 0 44 20.7484" fill="none" xmlns="http://www.w3.org/2000/svg">
<path id="Vector" d="M43.6965 17.173L37.72 12.1723V0.961895C37.72 0.705614 37.6381 0.494854 37.4739 0.329903C37.311 0.165144 37.1017 0.0827644 36.8466 0.0827644H31.6067C31.3518 0.0827644 31.1426 0.165144 30.9787 0.329903C30.8151 0.494854 30.7334 0.705711 30.7334 0.961895V6.31973L24.0744 0.714372C23.4928 0.238092 22.8013 0 22.0006 0C21.2001 0 20.5087 0.238092 19.9265 0.714372L0.303266 17.173C0.121357 17.3193 0.0216567 17.5162 0.00311218 17.7635C-0.0153367 18.0107 0.0482308 18.2265 0.194006 18.4096L1.88605 20.4429C2.03182 20.6077 2.22262 20.7084 2.45921 20.7453C2.67763 20.7638 2.89606 20.6995 3.11448 20.553L22.0001 4.69861L40.8858 20.5529C41.0317 20.6807 41.2224 20.7445 41.459 20.7445H41.541C41.7772 20.7083 41.9676 20.6069 42.1141 20.4425L43.8064 18.4095C43.9519 18.2261 44.0156 18.0106 43.9967 17.7632C43.9781 17.5165 43.878 17.3196 43.6965 17.173Z" fill="var(--fill-0, #0066CC)"/>
</svg>
