<svg preserveAspectRatio="none" width="100%" height="100%" overflow="visible" style="display: block;" viewBox="0 0 48.2402 48.2402" fill="none" xmlns="http://www.w3.org/2000/svg">
<g id="play-cricle">
<g id="Vector" opacity="0">
</g>
<path id="Vector_2" d="M38.3309 39.8384C37.949 39.8384 37.5671 39.6977 37.2656 39.3962C36.6827 38.8133 36.6827 37.8485 37.2656 37.2656C44.5217 30.0094 44.5217 18.2107 37.2656 10.9747C36.6827 10.3918 36.6827 9.42695 37.2656 8.84404C37.8485 8.26114 38.8133 8.26114 39.3962 8.84404C47.8181 17.266 47.8181 30.9743 39.3962 39.3962C39.0947 39.6977 38.7128 39.8384 38.3309 39.8384Z" fill="var(--fill-0, white)"/>
<path id="Vector_3" d="M9.90935 39.8384C9.52745 39.8384 9.14554 39.6977 8.84404 39.3962C0.422102 30.9743 0.422102 17.266 8.84404 8.84404C9.42695 8.26114 10.3918 8.26114 10.9747 8.84404C11.5576 9.42695 11.5576 10.3918 10.9747 10.9747C3.71852 18.2308 3.71852 30.0295 10.9747 37.2656C11.5576 37.8485 11.5576 38.8133 10.9747 39.3962C10.6732 39.6977 10.2912 39.8384 9.90935 39.8384Z" fill="var(--fill-0, white)"/>
<path id="Vector_4" d="M24.1201 45.6473C21.6076 45.6272 19.2157 45.2252 16.9846 44.4413C16.2007 44.1599 15.7786 43.2956 16.06 42.5117C16.3414 41.7278 17.1856 41.3057 17.9896 41.5871C19.9192 42.2504 21.9694 42.6122 24.1402 42.6122C26.2909 42.6122 28.3612 42.2504 30.2707 41.5871C31.0547 41.3258 31.919 41.7278 32.2004 42.5117C32.4818 43.2956 32.0597 44.1599 31.2758 44.4413C29.0245 45.2252 26.6326 45.6473 24.1201 45.6473Z" fill="var(--fill-0, white)"/>
<path id="Vector_5" d="M30.7532 6.71343C30.5923 6.71343 30.4114 6.69333 30.2506 6.63303C28.3411 5.94963 26.2708 5.60793 24.1201 5.60793C21.9694 5.60793 19.9192 5.96973 17.9896 6.63303C17.1856 6.89433 16.3414 6.49233 16.06 5.70843C15.7786 4.92452 16.2007 4.06022 16.9846 3.77882C19.2358 2.99491 21.6277 2.59291 24.1201 2.59291C26.6125 2.59291 29.0245 2.99491 31.2557 3.77882C32.0396 4.06022 32.4617 4.92452 32.1803 5.70843C31.9592 6.33153 31.3763 6.71343 30.7532 6.71343Z" fill="var(--fill-0, white)"/>
<path id="Vector_6" d="M17.5675 24.1201V20.7634C17.5675 16.5826 20.5222 14.8741 24.1402 16.9645L27.0547 18.6529L29.9692 20.3413C33.5873 22.4317 33.5873 25.8487 29.9692 27.9391L27.0547 29.6275L24.1402 31.316C20.5222 33.4064 17.5675 31.6979 17.5675 27.517V24.1201Z" fill="var(--fill-0, white)"/>
</g>
</svg>
