<svg preserveAspectRatio="none" width="100%" height="100%" overflow="visible" style="display: block;" viewBox="0 0 32 32" fill="none" xmlns="http://www.w3.org/2000/svg">
<g id="star 1" clip-path="url(#clip0_0_45347)">
<path id="Vector" d="M31.9166 12.275C31.7071 11.6271 31.1324 11.1669 30.4525 11.1056L21.2164 10.2669L17.5642 1.71862C17.2949 1.09214 16.6816 0.686612 16.0002 0.686612C15.3188 0.686612 14.7055 1.09214 14.4362 1.72009L10.784 10.2669L1.54643 11.1056C0.867705 11.1683 0.294448 11.6271 0.0837494 12.275C-0.126949 12.923 0.0676357 13.6337 0.581077 14.0817L7.56246 20.2044L5.50381 29.2728C5.35317 29.9396 5.61197 30.6288 6.1652 31.0287C6.46258 31.2435 6.81048 31.3529 7.16132 31.3529C7.46382 31.3529 7.76388 31.2714 8.03317 31.1102L16.0002 26.3486L23.9642 31.1102C24.547 31.4608 25.2817 31.4289 25.8337 31.0287C26.3872 30.6276 26.6457 29.9381 26.4951 29.2728L24.4364 20.2044L31.4178 14.083C31.9312 13.6337 32.1273 12.9242 31.9166 12.275Z" fill="var(--fill-0, white)"/>
</g>
<defs>
<clipPath id="clip0_0_45347">
<rect width="32" height="32" fill="white"/>
</clipPath>
</defs>
</svg>
