<svg preserveAspectRatio="none" width="100%" height="100%" overflow="visible" style="display: block;" viewBox="0 0 18 16.0016" fill="none" xmlns="http://www.w3.org/2000/svg">
<g id="Icon">
<path id="Vector" d="M9.90625 15.4391C9.71875 15.7932 9.41667 15.9807 9 16.0016C8.60417 15.9807 8.30208 15.7932 8.09375 15.4391L6.09375 11.3141L1.59375 10.6266C1.19792 10.5641 0.9375 10.3453 0.8125 9.97031C0.6875 9.57448 0.770833 9.23073 1.0625 8.93906L4.3125 5.72031L3.53125 1.15781C3.48958 0.761979 3.625 0.439063 3.9375 0.189063C4.27083 -0.0401042 4.625 -0.0609375 5 0.126563L9 2.25156L13.0312 0.126563C13.3854 -0.0609375 13.7292 -0.0401042 14.0625 0.189063C14.3958 0.439063 14.5312 0.761979 14.4687 1.15781L13.7187 5.72031L16.9687 8.93906C17.2396 9.23073 17.3229 9.57448 17.2187 9.97031C17.0729 10.3453 16.8021 10.5641 16.4062 10.6266L11.9062 11.3141L9.90625 15.4391Z" fill="var(--fill-0, #FBA707)"/>
</g>
</svg>
