<svg preserveAspectRatio="none" width="100%" height="100%" overflow="visible" style="display: block;" viewBox="0 0 14.5833 17.9195" fill="none" xmlns="http://www.w3.org/2000/svg">
<path id="Vector" d="M13.9583 9.79204C13.9583 13.9587 11.0417 16.042 7.575 17.2504C7.39347 17.3119 7.19628 17.3089 7.01667 17.242C3.54167 16.042 0.625 13.9587 0.625 9.79204V3.95871C0.625 3.73769 0.712798 3.52573 0.869078 3.36945C1.02536 3.21317 1.23732 3.12537 1.45833 3.12537C3.125 3.12537 5.20833 2.12537 6.65833 0.858708C6.83488 0.707874 7.05946 0.625 7.29167 0.625C7.52387 0.625 7.74845 0.707874 7.925 0.858708C9.38333 2.13371 11.4583 3.12537 13.125 3.12537C13.346 3.12537 13.558 3.21317 13.7143 3.36945C13.8705 3.52573 13.9583 3.73769 13.9583 3.95871V9.79204Z" stroke="var(--stroke-0, #0066CC)" stroke-width="1.25" stroke-linecap="round" stroke-linejoin="round"/>
</svg>
