<svg preserveAspectRatio="none" width="100%" height="100%" overflow="visible" style="display: block;" viewBox="0 0 35.0035 28.3" fill="none" xmlns="http://www.w3.org/2000/svg">
<g id="Group">
<path id="Vector" d="M5.25001 28.3C4.85001 28.3 4.46668 28.15 4.15001 27.8667C3.86816 27.6263 3.67779 27.2962 3.611 26.9319C3.54421 26.5676 3.60508 26.1913 3.78335 25.8667C4.36668 24.75 4.78335 23.5667 5.01668 22.35C5.38335 20.5333 5.35001 18.6833 4.93335 16.8333C4.80001 16.25 4.41668 15.7167 3.90001 15.3833C2.70456 14.6363 1.71916 13.597 1.0368 12.3635C0.354439 11.13 -0.00238112 9.74299 1.19582e-05 8.33333C1.19582e-05 6.18333 0.916679 4.05 2.50001 2.46667C4.08335 0.883333 6.15001 0 8.31668 0C10.5667 0 12.7667 0.983333 14.35 2.7C15.1573 3.57553 15.7776 4.60643 16.173 5.72974C16.5685 6.85305 16.7308 8.04519 16.65 9.23333C16.4833 12.1333 15.5833 17.8 11.4667 23.0167C9.96668 24.9167 8.20001 26.5833 6.18335 27.9667C5.88335 28.1667 5.56668 28.2667 5.23335 28.2667L5.25001 28.3ZM8.31668 1.7C6.60001 1.7 4.95001 2.4 3.68335 3.66667C2.40001 4.95 1.66668 6.65 1.66668 8.36667C1.66668 10.6667 2.83335 12.7667 4.78335 14C5.68335 14.5667 6.33335 15.4667 6.56668 16.4833C7.03335 18.5667 7.06668 20.65 6.66668 22.6833C6.40001 24.05 5.91668 25.3833 5.26668 26.65C7.1264 25.3581 8.78345 23.7965 10.1833 22.0167C14 17.15 14.85 11.8667 15 9.15C15.15 7.21667 14.4667 5.28333 13.15 3.86667C11.8833 2.5 10.1167 1.7 8.33335 1.7H8.31668Z" fill="var(--fill-0, white)"/>
<path id="Vector_2" d="M12.5 9.2C12.0333 9.2 11.6667 8.83333 11.6667 8.36667C11.6667 6.53333 10.1667 5.03333 8.33335 5.03333C7.86668 5.03333 7.50001 4.66667 7.50001 4.2C7.50001 3.73333 7.86668 3.36667 8.33335 3.36667C11.0833 3.36667 13.3333 5.61667 13.3333 8.36667C13.3333 8.83333 12.9667 9.2 12.5 9.2ZM23.5833 28.3C23.1833 28.3 22.8 28.15 22.4833 27.8667C22.2015 27.6263 22.0111 27.2962 21.9443 26.9319C21.8775 26.5676 21.9384 26.1913 22.1167 25.8667C22.7 24.75 23.1167 23.5667 23.35 22.35C23.7167 20.5333 23.6833 18.6833 23.2667 16.8333C23.1333 16.25 22.75 15.7167 22.2333 15.3833C21.0379 14.6363 20.0525 13.597 19.3701 12.3635C18.6878 11.13 18.331 9.74299 18.3333 8.33333C18.3333 6.18333 19.25 4.05 20.8333 2.46667C22.4167 0.883333 24.4833 1.19209e-07 26.65 1.19209e-07C28.9 1.19209e-07 31.1 0.983333 32.6833 2.7C33.4906 3.57553 34.1109 4.60643 34.5063 5.72974C34.9018 6.85305 35.0641 8.04519 34.9833 9.23333C34.8167 12.1333 33.9167 17.8 29.8 23.0167C28.3 24.9167 26.5333 26.5833 24.5167 27.9667C24.2167 28.1667 23.9 28.2667 23.5667 28.2667L23.5833 28.3ZM26.65 1.7C24.9333 1.7 23.2833 2.4 22.0167 3.66667C20.7333 4.95 20 6.65 20 8.36667C20 10.6667 21.1667 12.7667 23.1167 14C24.0167 14.5667 24.6667 15.4667 24.9 16.4833C25.3667 18.5667 25.4 20.65 25 22.6833C24.7333 24.05 24.25 25.3833 23.6 26.65C25.4597 25.3581 27.1168 23.7965 28.5167 22.0167C32.3333 17.15 33.1833 11.8667 33.3333 9.15C33.4833 7.21667 32.8 5.28333 31.4833 3.86667C30.2167 2.5 28.45 1.7 26.6667 1.7H26.65Z" fill="var(--fill-0, white)"/>
<path id="Vector_3" d="M30.8333 9.2C30.3667 9.2 30 8.83333 30 8.36667C30 6.53333 28.5 5.03333 26.6667 5.03333C26.2 5.03333 25.8333 4.66667 25.8333 4.2C25.8333 3.73333 26.2 3.36667 26.6667 3.36667C29.4167 3.36667 31.6667 5.61667 31.6667 8.36667C31.6667 8.83333 31.3 9.2 30.8333 9.2Z" fill="var(--fill-0, white)"/>
</g>
</svg>
