<svg preserveAspectRatio="none" width="100%" height="100%" overflow="visible" style="display: block;" viewBox="0 0 44 35.0158" fill="none" xmlns="http://www.w3.org/2000/svg">
<g id="Group">
<path id="Vector" d="M22 7.06848L6.30764 20.0052C6.30764 20.0235 6.30305 20.0503 6.29387 20.0869C6.28489 20.1233 6.28011 20.1496 6.28011 20.1684V33.2682C6.28011 33.7412 6.45303 34.1511 6.79878 34.4962C7.14443 34.8416 7.55375 35.0154 8.02683 35.0154H18.5064V24.5352H25.4937V35.0158H35.9732C36.4462 35.0158 36.8561 34.8424 37.2013 34.4962C37.547 34.1514 37.7205 33.7413 37.7205 33.2682V20.1684C37.7205 20.0957 37.7106 20.0409 37.693 20.0052L22 7.06848Z" fill="var(--fill-0, #0066CC)"/>
<path id="Vector_2" d="M43.6965 17.0575L37.72 12.0905V0.955426C37.72 0.700869 37.6381 0.491526 37.4739 0.327684C37.311 0.164033 37.1017 0.0822078 36.8466 0.0822078H31.6067C31.3518 0.0822078 31.1426 0.164033 30.9787 0.327684C30.8151 0.491526 30.7334 0.700965 30.7334 0.955426V6.27723L24.0744 0.709568C23.4928 0.236491 22.8013 0 22.0006 0C21.2001 0 20.5087 0.236491 19.9265 0.709568L0.303266 17.0575C0.121357 17.2028 0.0216567 17.3984 0.00311218 17.6441C-0.0153367 17.8896 0.0482308 18.104 0.194006 18.2858L1.88605 20.3054C2.03182 20.4691 2.22262 20.5692 2.45921 20.6058C2.67763 20.6241 2.89606 20.5603 3.11448 20.4148L22.0001 4.66701L40.8858 20.4147C41.0317 20.5416 41.2224 20.605 41.459 20.605H41.541C41.7772 20.5691 41.9676 20.4683 42.1141 20.305L43.8064 18.2857C43.9519 18.1035 44.0156 17.8895 43.9967 17.6437C43.9781 17.3987 43.878 17.2031 43.6965 17.0575Z" fill="var(--fill-0, #0066CC)"/>
</g>
</svg>
