<svg preserveAspectRatio="none" width="100%" height="100%" overflow="visible" style="display: block;" viewBox="0 0 20 20" fill="none" xmlns="http://www.w3.org/2000/svg">
<g id="SVG" clip-path="url(#clip0_0_45353)">
<path id="Vector" d="M10.8333 1.70833V1.66667C10.8333 0.75 10.0833 0 9.16667 0C8.25 0 7.5 0.75 7.5 1.66667V1.70833C6.11774 2.09352 4.85833 2.82904 3.84368 3.84368C2.82904 4.85833 2.09352 6.11774 1.70833 7.5H1.66667C0.75 7.5 0 8.25 0 9.16667C0 10.0833 0.75 10.8333 1.66667 10.8333H1.70833C1.80616 12.5164 2.41207 14.1302 3.44608 15.4618C4.48009 16.7934 5.8936 17.7801 7.5 18.2917V18.3333C7.5 19.25 8.25 20 9.16667 20C10.0833 20 10.8333 19.25 10.8333 18.3333V18.2917C12.5164 18.1938 14.1302 17.5879 15.4618 16.5539C16.7934 15.5199 17.7801 14.1064 18.2917 12.5H18.3333C19.25 12.5 20 11.75 20 10.8333C20 9.91667 19.25 9.16667 18.3333 9.16667H18.2917C18.0992 7.25412 17.2515 5.4669 15.8923 4.10769C14.5331 2.74848 12.7459 1.90084 10.8333 1.70833Z" fill="var(--fill-0, #0066CC)"/>
</g>
<defs>
<clipPath id="clip0_0_45353">
<rect width="20" height="20" fill="white"/>
</clipPath>
</defs>
</svg>
