<svg preserveAspectRatio="none" width="100%" height="100%" overflow="visible" style="display: block;" viewBox="0 0 17.0875 17.0875" fill="none" xmlns="http://www.w3.org/2000/svg">
<path id="Vector" d="M10.3761 4.21137C10.2234 4.36714 10.1379 4.57657 10.1379 4.7947C10.1379 5.01283 10.2234 5.22226 10.3761 5.37804L11.7094 6.71137C11.8652 6.86406 12.0746 6.94958 12.2928 6.94958C12.5109 6.94958 12.7203 6.86406 12.8761 6.71137L16.0178 3.5697C16.4368 4.49569 16.5637 5.5274 16.3815 6.52732C16.1993 7.52725 15.7167 8.44791 14.998 9.1666C14.2793 9.8853 13.3586 10.3679 12.3587 10.5501C11.3588 10.7323 10.3271 10.6054 9.4011 10.1864L3.64277 15.9447C3.31125 16.2762 2.86161 16.4625 2.39277 16.4625C1.92393 16.4625 1.47429 16.2762 1.14277 15.9447C0.811246 15.6132 0.625 15.1635 0.625 14.6947C0.625 14.2259 0.811246 13.7762 1.14277 13.4447L6.9011 7.68637C6.48207 6.76038 6.3552 5.72867 6.53739 4.72875C6.71957 3.72882 7.20217 2.80816 7.92087 2.08947C8.63956 1.37077 9.56022 0.888176 10.5601 0.705987C11.5601 0.523798 12.5918 0.650673 13.5178 1.0697L10.3844 4.20304L10.3761 4.21137Z" stroke="var(--stroke-0, #0066CC)" stroke-width="1.25" stroke-linecap="round" stroke-linejoin="round"/>
</svg>
