<svg preserveAspectRatio="none" width="100%" height="100%" overflow="visible" style="display: block;" viewBox="0 0 39.7 40" fill="none" xmlns="http://www.w3.org/2000/svg">
<g id="logos:whatsapp-icon">
<rect width="39.7" height="40" rx="19.85" fill="var(--fill-0, white)"/>
<path id="Vector" d="M0.853157 19.7605C0.852226 23.1213 1.73037 26.4028 3.40013 29.2952L0.693467 39.1777L10.807 36.5259C13.6042 38.0487 16.7383 38.8466 19.9232 38.8468H19.9316C30.4456 38.8468 39.0042 30.2913 39.0087 19.7755C39.0107 14.6799 37.028 9.88824 33.4259 6.28328C29.8243 2.67863 25.0344 0.69243 19.9308 0.690104C9.41564 0.690104 0.857653 9.24514 0.853312 19.7605" fill="url(#paint0_linear_0_45666)"/>
<path id="Vector_2" d="M0.170882 19.7544C0.169796 23.2361 1.07941 26.635 2.80871 29.631L0.00499026 39.8678L10.4811 37.1209C13.3676 38.6947 16.6175 39.5245 19.9245 39.5257H19.933C30.8242 39.5257 39.6903 30.6625 39.6949 19.7702C39.6968 14.4915 37.6428 9.5276 33.912 5.79349C30.1806 2.05984 25.2194 0.00217054 19.933 0C9.04003 0 0.175223 8.86202 0.170882 19.7544ZM6.4098 29.115L6.01863 28.4941C4.37429 25.8795 3.50639 22.8581 3.50763 19.7557C3.51104 10.7022 10.8791 3.33643 19.9393 3.33643C24.3268 3.33829 28.4503 5.04868 31.5517 8.15194C34.6529 11.2555 36.3594 15.3811 36.3583 19.769C36.3543 28.8225 28.9861 36.1891 19.933 36.1891H19.9265C16.9788 36.1876 14.0878 35.396 11.5665 33.9L10.9665 33.5442L4.7498 35.1741L6.4098 29.115Z" fill="url(#paint1_linear_0_45666)"/>
<path id="Vector_3" d="M14.995 11.4951C14.6251 10.6729 14.2358 10.6563 13.884 10.6419C13.5959 10.6295 13.2666 10.6304 12.9376 10.6304C12.6083 10.6304 12.0733 10.7543 11.6211 11.2481C11.1683 11.7424 9.89269 12.9368 9.89269 15.3661C9.89269 17.7954 11.6621 20.1433 11.9088 20.4731C12.1558 20.8022 15.3248 25.947 20.3437 27.9263C24.5149 29.5711 25.3637 29.2439 26.269 29.1614C27.1744 29.0793 29.1905 27.9673 29.6018 26.8143C30.0135 25.6614 30.0135 24.6732 29.89 24.4667C29.7666 24.261 29.4373 24.1374 28.9435 23.8906C28.4497 23.6438 26.022 22.449 25.5694 22.2842C25.1167 22.1196 24.7876 22.0374 24.4583 22.5318C24.129 23.0255 23.1834 24.1374 22.8952 24.4667C22.6073 24.7968 22.319 24.8379 21.8254 24.5909C21.3313 24.3432 19.7411 23.8224 17.8544 22.1404C16.3865 20.8315 15.3955 19.2152 15.1074 18.7208C14.8194 18.2272 15.0766 17.9596 15.3242 17.7135C15.546 17.4923 15.8181 17.137 16.0652 16.8487C16.3114 16.5604 16.3936 16.3546 16.5583 16.0253C16.7231 15.6957 16.6406 15.4073 16.5173 15.1604C16.3936 14.9134 15.4341 12.4714 14.995 11.4951Z" fill="var(--fill-0, white)"/>
</g>
<defs>
<linearGradient id="paint0_linear_0_45666" x1="1916.45" y1="3849.45" x2="1916.45" y2="0.690104" gradientUnits="userSpaceOnUse">
<stop stop-color="#1FAF38"/>
<stop offset="1" stop-color="#60D669"/>
</linearGradient>
<linearGradient id="paint1_linear_0_45666" x1="1984.5" y1="3986.78" x2="1984.5" y2="0" gradientUnits="userSpaceOnUse">
<stop stop-color="#F9F9F9"/>
<stop offset="1" stop-color="white"/>
</linearGradient>
</defs>
</svg>
