<svg preserveAspectRatio="none" width="100%" height="100%" overflow="visible" style="display: block;" viewBox="0 0 19.2923 17.3479" fill="none" xmlns="http://www.w3.org/2000/svg">
<g id="15-Checked">
<path id="Vector" d="M7.46815 17.3479C11.5927 17.3479 14.9363 14.0043 14.9363 9.8797C14.9363 5.75516 11.5927 2.41155 7.46815 2.41155C3.34361 2.41155 0 5.75516 0 9.8797C0 14.0043 3.34361 17.3479 7.46815 17.3479Z" fill="var(--fill-0, #FFF2EC)"/>
<path id="Vector_2" d="M7.5525 15.652L7.45777 15.4906C6.01085 13.0254 2.16584 7.79369 2.127 7.74114L2.07154 7.66579L3.38151 6.37117L7.52817 9.26667C10.139 5.87871 12.5748 3.55171 14.1636 2.19282C15.9016 0.706344 17.033 0.0220173 17.0444 0.0154596L17.0701 5.95465e-05H19.2922L19.08 0.18909C13.621 5.05134 7.70413 15.3856 7.6452 15.4894L7.5525 15.652Z" fill="var(--fill-0, #FF6B35)"/>
</g>
</svg>
