<svg preserveAspectRatio="none" width="100%" height="100%" overflow="visible" style="display: block;" viewBox="0 0 44 44" fill="none" xmlns="http://www.w3.org/2000/svg">
<g id="star 1" clip-path="url(#clip0_0_45378)">
<path id="Vector" d="M43.8853 16.8782C43.5973 15.9872 42.807 15.3544 41.8721 15.2702L29.1725 14.117L24.1507 2.36311C23.7805 1.5017 22.9372 0.944101 22.0002 0.944101C21.0633 0.944101 20.22 1.5017 19.8497 2.36513L14.828 14.117L2.12634 15.2702C1.19309 15.3565 0.404859 15.9872 0.115148 16.8782C-0.174563 17.7691 0.0929918 18.7464 0.798973 19.3624L10.3984 27.7811L7.56773 40.2501C7.3606 41.1669 7.71645 42.1146 8.47715 42.6645C8.88603 42.9599 9.36441 43.1103 9.84681 43.1103C10.2627 43.1103 10.6753 42.9982 11.0456 42.7766L22.0002 36.2294L32.9508 42.7766C33.7522 43.2587 34.7623 43.2147 35.5213 42.6645C36.2823 42.1129 36.6378 41.1649 36.4307 40.2501L33.6001 27.7811L43.1995 19.3641C43.9055 18.7464 44.175 17.7708 43.8853 16.8782Z" fill="var(--fill-0, #FFC107)"/>
</g>
<defs>
<clipPath id="clip0_0_45378">
<rect width="44" height="44" fill="white"/>
</clipPath>
</defs>
</svg>
