<svg preserveAspectRatio="none" width="100%" height="100%" overflow="visible" style="display: block;" viewBox="0 0 24 24" fill="none" xmlns="http://www.w3.org/2000/svg">
<g id="checked 1 [Vectorized]" clip-path="url(#clip0_0_45407)">
<path id="Vector" d="M22.4982 3.03098C22.5575 3.02569 22.6264 3.0199 22.6855 3.02123C22.9333 3.02855 23.1683 3.13334 23.3394 3.31284C23.501 3.48148 23.5875 3.70821 23.5793 3.94158C23.5629 4.41595 23.073 4.79672 22.7535 5.11516L21.745 6.11993L18.5895 9.26756L14.0573 13.7894C13.3198 14.5246 12.5882 15.2647 11.8448 15.9945C11.5011 16.3319 11.0264 16.4484 10.6273 16.1336C10.4201 15.9701 10.2586 15.7733 10.0808 15.58L9.31624 14.7487L6.67552 11.876C6.17632 11.3501 5.27688 10.6514 5.91185 9.88247C6.06331 9.69701 6.28383 9.58132 6.52252 9.5621C6.71337 9.54666 6.93649 9.59592 7.08609 9.7129C7.42545 9.9783 7.77926 10.4004 8.07422 10.7215L10.1209 12.9482C10.3815 13.2318 10.9455 13.8768 11.2063 14.0947C11.3164 13.953 11.568 13.7124 11.7008 13.5798L12.5435 12.7396L15.3547 9.93438L19.8101 5.48852L21.2388 4.06062C21.5188 3.78066 21.7986 3.49491 22.088 3.22502C22.2096 3.1117 22.3402 3.07055 22.4982 3.03098Z" fill="var(--fill-0, #2A7AE2)"/>
<path id="Vector_2" d="M11.0263 0H12.2276C12.5234 0.166279 12.7695 0.28762 12.8679 0.649427C12.9337 0.893159 12.8984 1.15317 12.7698 1.37044C12.4419 1.92245 11.7601 1.82128 11.2032 1.85787C10.7972 1.88678 10.3935 1.94178 9.99457 2.02255C7.21952 2.57044 4.79977 4.25325 3.3203 6.66415C1.90594 8.96409 1.46226 11.7314 2.08669 14.3582C2.7203 16.9981 4.37777 19.2776 6.69373 20.6941C8.9948 22.0988 11.7587 22.5344 14.3802 21.9054C17.0104 21.2604 19.2802 19.6046 20.6976 17.2972C21.4828 16.0133 21.9719 14.5705 22.1293 13.0737C22.2038 12.3824 22.0098 11.3394 22.866 11.1246C23.1011 11.0654 23.3501 11.1011 23.5591 11.224C23.7891 11.3623 23.8894 11.5583 24 11.7899V12.9098L23.9932 12.9311C23.9203 13.1699 23.8767 13.7526 23.8296 14.0239C23.7492 14.4846 23.6531 14.9009 23.5219 15.3514C22.6128 18.4368 20.5117 21.0327 17.6834 22.5647C16.6441 23.127 15.5288 23.5357 14.3723 23.778C14.1118 23.8301 13.1389 23.9365 12.9976 24H11.043C10.9036 23.9466 9.95569 23.8263 9.73193 23.7867C9.06059 23.662 8.40211 23.4762 7.76477 23.231C4.33704 21.9272 1.68733 19.1366 0.562547 15.6461C0.424784 15.2182 0.31264 14.7825 0.226709 14.3413C0.183691 14.1104 0.0707834 13.1377 0 12.9996V11.0018C0.0758145 10.8439 0.104554 10.3624 0.135772 10.1676C0.168827 9.96136 0.206786 9.76488 0.24937 9.55877C0.45183 8.56538 0.78371 7.60282 1.23652 6.69572C2.7102 3.70027 5.36545 1.45439 8.56387 0.498054C9.06879 0.348996 9.58221 0.230417 10.1014 0.14296C10.3437 0.103354 10.8092 0.0792391 11.0263 0Z" fill="var(--fill-0, #2A7AE2)"/>
</g>
<defs>
<clipPath id="clip0_0_45407">
<rect width="24" height="24" fill="white"/>
</clipPath>
</defs>
</svg>
