<svg preserveAspectRatio="none" width="100%" height="100%" overflow="visible" style="display: block;" viewBox="0 0 28 28" fill="none" xmlns="http://www.w3.org/2000/svg">
<g id="SVG" clip-path="url(#clip0_0_45347)">
<path id="Vector" d="M15.1667 2.39167V2.33333C15.1667 1.05 14.1167 0 12.8333 0C11.55 0 10.5 1.05 10.5 2.33333V2.39167C8.56483 2.93093 6.80166 3.96065 5.38115 5.38115C3.96065 6.80166 2.93093 8.56483 2.39167 10.5H2.33333C1.05 10.5 0 11.55 0 12.8333C0 14.1167 1.05 15.1667 2.33333 15.1667H2.39167C2.52862 17.523 3.37689 19.7823 4.82451 21.6465C6.27213 23.5107 8.25103 24.8921 10.5 25.6083V25.6667C10.5 26.95 11.55 28 12.8333 28C14.1167 28 15.1667 26.95 15.1667 25.6667V25.6083C17.523 25.4714 19.7823 24.6231 21.6465 23.1755C23.5107 21.7279 24.8921 19.749 25.6083 17.5H25.6667C26.95 17.5 28 16.45 28 15.1667C28 13.8833 26.95 12.8333 25.6667 12.8333H25.6083C25.3388 10.1558 24.1521 7.65366 22.2492 5.75077C20.3463 3.84788 17.8442 2.66118 15.1667 2.39167ZM14 23.3333C11.5246 23.3333 9.15068 22.35 7.40034 20.5997C5.65 18.8493 4.66667 16.4754 4.66667 14C4.66667 11.5246 5.65 9.15068 7.40034 7.40034C9.15068 5.65 11.5246 4.66667 14 4.66667C16.4754 4.66667 18.8493 5.65 20.5997 7.40034C22.35 9.15068 23.3333 11.5246 23.3333 14C23.3333 16.4754 22.35 18.8493 20.5997 20.5997C18.8493 22.35 16.4754 23.3333 14 23.3333ZM14 9.33333C12.7623 9.33333 11.5753 9.825 10.7002 10.7002C9.825 11.5753 9.33333 12.7623 9.33333 14C9.33333 15.2377 9.825 16.4247 10.7002 17.2998C11.5753 18.175 12.7623 18.6667 14 18.6667C15.2377 18.6667 16.4247 18.175 17.2998 17.2998C18.175 16.4247 18.6667 15.2377 18.6667 14C18.6667 12.7623 18.175 11.5753 17.2998 10.7002C16.4247 9.825 15.2377 9.33333 14 9.33333Z" fill="var(--fill-0, #2A7AE2)"/>
</g>
<defs>
<clipPath id="clip0_0_45347">
<rect width="28" height="28" fill="white"/>
</clipPath>
</defs>
</svg>
