<svg preserveAspectRatio="none" width="100%" height="100%" overflow="visible" style="display: block;" viewBox="0 0 24 24" fill="none" xmlns="http://www.w3.org/2000/svg">
<g id="Icon">
<path id="Vector" d="M10 20L8.75 17.5L6 18" stroke="var(--stroke-0, #0066CC)" stroke-width="2" stroke-linecap="round" stroke-linejoin="round"/>
<path id="Vector_2" d="M10 4L8.75 6.5L6 6" stroke="var(--stroke-0, #0066CC)" stroke-width="2" stroke-linecap="round" stroke-linejoin="round"/>
<path id="Vector_3" d="M14 20L15.25 17.5L18 18" stroke="var(--stroke-0, #0066CC)" stroke-width="2" stroke-linecap="round" stroke-linejoin="round"/>
<path id="Vector_4" d="M14 4L15.25 6.5L18 6" stroke="var(--stroke-0, #0066CC)" stroke-width="2" stroke-linecap="round" stroke-linejoin="round"/>
<path id="Vector_5" d="M17 21L14 15H10" stroke="var(--stroke-0, #0066CC)" stroke-width="2" stroke-linecap="round" stroke-linejoin="round"/>
<path id="Vector_6" d="M17 3L14 9L15.5 12" stroke="var(--stroke-0, #0066CC)" stroke-width="2" stroke-linecap="round" stroke-linejoin="round"/>
<path id="Vector_7" d="M2 12H8.5L10 9" stroke="var(--stroke-0, #0066CC)" stroke-width="2" stroke-linecap="round" stroke-linejoin="round"/>
<path id="Vector_8" d="M20 10L18.5 12L20 14" stroke="var(--stroke-0, #0066CC)" stroke-width="2" stroke-linecap="round" stroke-linejoin="round"/>
<path id="Vector_9" d="M22 12H15.5L14 15" stroke="var(--stroke-0, #0066CC)" stroke-width="2" stroke-linecap="round" stroke-linejoin="round"/>
<path id="Vector_10" d="M4 10L5.5 12L4 14" stroke="var(--stroke-0, #0066CC)" stroke-width="2" stroke-linecap="round" stroke-linejoin="round"/>
<path id="Vector_11" d="M7 21L10 15L8.5 12" stroke="var(--stroke-0, #0066CC)" stroke-width="2" stroke-linecap="round" stroke-linejoin="round"/>
<path id="Vector_12" d="M7 3L10 9H14" stroke="var(--stroke-0, #0066CC)" stroke-width="2" stroke-linecap="round" stroke-linejoin="round"/>
</g>
</svg>
