<svg preserveAspectRatio="none" width="100%" height="100%" overflow="visible" style="display: block;" viewBox="0 0 18 18" fill="none" xmlns="http://www.w3.org/2000/svg">
<g id="SVG">
<path id="Vector" d="M4.965 8.0925C6.04805 10.2215 7.77855 11.952 9.9075 13.035L11.5575 11.385C11.6552 11.2885 11.7775 11.2207 11.9111 11.189C12.0446 11.1573 12.1844 11.1628 12.315 11.205C13.155 11.4825 14.0625 11.6325 15 11.6325C15.1989 11.6325 15.3897 11.7115 15.5303 11.8522C15.671 11.9928 15.75 12.1836 15.75 12.3825V15C15.75 15.1989 15.671 15.3897 15.5303 15.5303C15.3897 15.671 15.1989 15.75 15 15.75C11.6185 15.75 8.37548 14.4067 5.98439 12.0156C3.5933 9.62452 2.25 6.38151 2.25 3C2.25 2.80109 2.32902 2.61032 2.46967 2.46967C2.61032 2.32902 2.80109 2.25 3 2.25H5.625C5.82391 2.25 6.01468 2.32902 6.15533 2.46967C6.29598 2.61032 6.375 2.80109 6.375 3C6.375 3.9375 6.525 4.8375 6.8025 5.685C6.84377 5.81631 6.8481 5.95645 6.81503 6.09006C6.78196 6.22367 6.71275 6.3456 6.615 6.4425L4.965 8.0925Z" fill="var(--fill-0, white)"/>
</g>
</svg>
