<svg preserveAspectRatio="none" width="100%" height="100%" overflow="visible" style="display: block;" viewBox="0 0 46 46" fill="none" xmlns="http://www.w3.org/2000/svg">
<g id="house 1" clip-path="url(#clip0_0_45421)">
<path id="Vector" d="M21.7248 29.829C16.1849 29.829 11.6779 25.3132 11.6779 19.7625V10.0868C11.6779 4.53611 16.1849 0.0203059 21.7248 0.0203059C27.2647 0.0203059 31.7717 4.53611 31.7717 10.0868V19.7625C31.7717 25.3132 27.2647 29.829 21.7248 29.829Z" fill="var(--fill-0, #DADA3B)"/>
<path id="Vector_2" d="M21.7249 0.0203059V29.829C27.2648 29.829 31.7718 25.3132 31.7718 19.7625V10.0868C31.7717 4.53611 27.2647 0.0203059 21.7249 0.0203059Z" fill="var(--fill-0, #9DBC29)"/>
<path id="Vector_3" d="M21.657 9.69635C20.9142 9.69635 20.312 10.2997 20.312 11.044V15.1515L19.4156 14.2444C18.893 13.7155 18.0414 13.7113 17.5134 14.235C16.9856 14.7587 16.9813 15.6119 17.504 16.1408L20.3119 18.9824V44.6351C20.3119 45.3794 20.9141 45.9827 21.6569 45.9827C22.3998 45.9827 23.002 45.3794 23.002 44.6351V11.044C23.0021 10.2997 22.3998 9.69635 21.657 9.69635Z" fill="var(--fill-0, #A34F3E)"/>
<path id="Vector_4" d="M21.7249 9.70147V45.981C22.436 45.9454 23.0022 45.3581 23.0022 44.6367V11.0456C23.0021 10.3243 22.436 9.73705 21.7249 9.70147Z" fill="var(--fill-0, #873F2E)"/>
<path id="Vector_5" d="M7.58116 45.9066C6.83834 45.9066 6.23611 45.3032 6.23611 44.559V36.2629C6.23611 35.5186 6.83834 34.9152 7.58116 34.9152C8.32399 34.9152 8.92621 35.5186 8.92621 36.2629V44.559C8.92621 45.3032 8.32399 45.9066 7.58116 45.9066Z" fill="var(--fill-0, #C86E59)"/>
<path id="Vector_6" d="M7.58118 34.9152V45.9066C8.32401 45.9066 8.92623 45.3032 8.92623 44.559V36.2629C8.92623 35.5185 8.32401 34.9152 7.58118 34.9152Z" fill="var(--fill-0, #A34F3E)"/>
<path id="Vector_7" d="M7.58115 37.6105C5.40452 37.6105 3.43371 36.0763 2.03171 33.2904C0.777403 30.7978 0.0865974 27.5136 0.0865974 24.0428C0.0865974 16.9318 6.23755 8.50835 6.49944 8.15329C6.75307 7.80937 7.15449 7.60641 7.58124 7.60641C8.008 7.60641 8.40942 7.80937 8.66305 8.15329C8.92485 8.50844 15.0758 16.9318 15.0758 24.0428C15.0758 27.5136 14.385 30.7978 13.1306 33.2904C11.7287 36.0763 9.75779 37.6105 7.58115 37.6105Z" fill="var(--fill-0, #DADA3B)"/>
<path id="Vector_8" d="M8.66298 8.15329C8.40936 7.80937 8.00794 7.60641 7.58118 7.60641V37.6105C9.75782 37.6105 11.7286 36.0763 13.1306 33.2904C14.385 30.7978 15.0758 27.5136 15.0758 24.0428C15.0757 16.9318 8.92479 8.50835 8.66298 8.15329Z" fill="var(--fill-0, #9DBC29)"/>
<path id="Vector_9" d="M40.8706 11.8099C36.7118 12.3847 33.2236 8.59993 34.3115 4.36856C34.835 2.33207 36.4379 0.726027 38.4704 0.201519C42.6935 -0.888466 46.4709 2.60655 45.8972 6.7735C45.5375 9.38616 43.4782 11.4494 40.8706 11.8099Z" fill="var(--fill-0, #FFDD54)"/>
<path id="Vector_10" d="M40.0327 8.7738e-05V11.8671C40.3081 11.8671 40.5877 11.8489 40.8706 11.8098C43.4781 11.4494 45.5374 9.38606 45.8971 6.77341C46.3988 3.12979 43.5737 8.7738e-05 40.0327 8.7738e-05Z" fill="var(--fill-0, #FFB454)"/>
<path id="Vector_11" d="M40.1698 27.6224C39.427 27.6224 38.8247 27.019 38.8247 26.2747V18.7374C38.8247 17.9931 39.427 17.3897 40.1698 17.3897C40.9126 17.3897 41.5148 17.9931 41.5148 18.7374V26.2747C41.5148 27.019 40.9126 27.6224 40.1698 27.6224Z" fill="var(--fill-0, #FF405C)"/>
<path id="Vector_12" d="M13.2673 46V28.2645C13.2673 28.1361 13.3222 28.0136 13.4181 27.9284L27.7347 15.2035C27.8169 15.1305 27.9225 15.0903 28.0322 15.0903C28.142 15.0903 28.2477 15.1305 28.3298 15.2035L42.6463 27.9284C42.7422 28.0136 42.7972 28.1362 42.7972 28.2645V45.9999H13.2673V46Z" fill="var(--fill-0, #FFF2DE)"/>
<path id="Vector_13" d="M42.6463 27.9284L28.3298 15.2035C28.2477 15.1305 28.142 15.0903 28.0322 15.0903V45.9999H42.7972V28.2645C42.7972 28.1362 42.7422 28.0136 42.6463 27.9284Z" fill="var(--fill-0, #FDE4C3)"/>
<path id="Vector_14" d="M24.9241 46.0001H16.8539V31.9289C16.8539 31.1846 17.4561 30.5813 18.199 30.5813H23.5791C24.3219 30.5813 24.9241 31.1846 24.9241 31.9289V46.0001Z" fill="var(--fill-0, #A34F3E)"/>
<path id="Vector_15" d="M36.493 38.4415H31.8957C31.3703 38.4415 30.9443 38.0147 30.9443 37.4883V32.8821C30.9443 32.3557 31.3703 31.9289 31.8957 31.9289H36.493C37.0184 31.9289 37.4443 32.3557 37.4443 32.8821V37.4883C37.4443 38.0147 37.0184 38.4415 36.493 38.4415Z" fill="var(--fill-0, #C8FFFF)"/>
<path id="Vector_16" d="M37.4443 39.7892H30.9444C30.2016 39.7892 29.5993 39.1858 29.5993 38.4415V31.9289C29.5993 31.1846 30.2016 30.5813 30.9444 30.5813H37.4443C38.1872 30.5813 38.7894 31.1846 38.7894 31.9289V38.4415C38.7893 39.1858 38.1872 39.7892 37.4443 39.7892ZM32.2894 37.0939H36.0992V33.2766H32.2894V37.0939Z" fill="var(--fill-0, #A34F3E)"/>
<path id="Vector_17" d="M44.5648 31.5821C44.2474 31.5822 43.9288 31.4703 43.6727 31.2426L28.0322 17.341L12.3918 31.2426C11.8363 31.7365 10.9861 31.6856 10.4931 31.1288C10.0001 30.572 10.051 29.7202 10.6068 29.2263L27.1397 14.5314C27.6491 14.0787 28.4156 14.0787 28.9248 14.5314L45.4578 29.2263C46.0135 29.7203 46.0643 30.572 45.5715 31.1288C45.3056 31.4289 44.936 31.5821 44.5648 31.5821Z" fill="var(--fill-0, #FF405C)"/>
<path id="Vector_18" d="M45.4579 29.2264L28.9248 14.5314C28.6702 14.305 28.3513 14.1918 28.0322 14.1918V17.341L43.6727 31.2426C43.9287 31.4702 44.2474 31.5821 44.5647 31.5821C44.936 31.5821 45.3057 31.4289 45.5714 31.1287C46.0644 30.5721 46.0135 29.7203 45.4579 29.2264Z" fill="var(--fill-0, #E20059)"/>
<path id="Vector_19" d="M44.6549 46H1.34513C0.602308 45.9827 8.7738e-05 45.3794 8.7738e-05 44.6351C8.7738e-05 43.8908 0.602308 43.2874 1.34513 43.2874H44.6549C45.3977 43.2874 45.9999 43.8908 45.9999 44.6351C45.9999 45.3794 45.3977 45.9827 44.6549 46Z" fill="var(--fill-0, #DADA3B)"/>
<path id="Vector_20" d="M44.6549 43.2874H23.0021V46H44.6549C45.3977 45.9827 45.9999 45.3794 45.9999 44.6351C45.9999 43.8907 45.3977 43.2874 44.6549 43.2874Z" fill="var(--fill-0, #9DBC29)"/>
</g>
<defs>
<clipPath id="clip0_0_45421">
<rect width="46" height="46" fill="white"/>
</clipPath>
</defs>
</svg>
