<svg preserveAspectRatio="none" width="100%" height="100%" overflow="visible" style="display: block;" viewBox="0 0 44 44" fill="none" xmlns="http://www.w3.org/2000/svg">
<g id="Frame 2087328526 [Vectorized]" clip-path="url(#clip0_0_45388)">
<path id="Vector" d="M26.8043 13.5554C27.8428 13.6457 29.4727 15.6475 30.4226 16.2861C30.7936 16.6805 31.2048 16.9484 31.5779 17.2988C32.1323 17.8194 32.7221 18.3002 33.2796 18.8011L36.233 21.4443C36.4832 21.666 36.9203 22.1233 37.1443 22.3C37.6692 22.7856 38.1996 23.2653 38.7354 23.7388C38.9596 23.9388 39.4662 24.4048 39.6971 24.5557L41.9806 26.553C42.2617 26.7967 42.9253 27.4401 43.1952 27.6317C44.3884 28.4793 44.1684 30.0438 42.6697 30.2533C41.9847 30.349 41.4737 29.5347 40.966 29.2234C41.0297 29.9587 40.997 31.1817 40.997 31.9497L40.9953 36.8314L40.9975 39.7374C40.9979 40.0893 41.0193 40.9522 40.9677 41.261L41.01 41.3589C41.1706 41.4175 41.3832 41.3707 41.5586 41.3712C42.6737 41.3743 43.3933 41.1823 44 42.275V43.0938C43.716 43.5334 43.5789 43.707 43.1307 44H22.0031L22.0049 41.3947L16.1203 41.3959C15.1495 41.4547 13.6581 41.4188 12.69 41.3816C12.6381 41.1093 12.6553 40.5222 12.655 40.2257L12.6549 38.2241C12.655 36.1835 12.5929 33.8583 12.6674 31.8466C12.6506 31.7572 12.672 31.207 12.6737 31.082C12.6873 30.4506 12.6881 29.819 12.676 29.1876C12.1714 29.5561 11.6716 30.2174 11.005 30.2158C10.3046 30.2141 9.69431 29.6002 9.70759 28.8963C9.71025 28.6529 9.79073 28.4169 9.93717 28.2226C10.2442 27.8107 11.0499 27.1535 11.4618 26.7809C12.4436 25.8926 13.4717 25.032 14.4368 24.1246C14.6908 23.9499 16.0169 22.7501 16.2927 22.4932C17.2724 21.581 18.5386 20.5796 19.452 19.6504C19.65 19.5354 20.64 18.634 20.8505 18.4337C21.2028 18.15 21.6867 17.7055 22.0029 17.3905C22.1369 17.3106 22.6583 16.8367 22.7945 16.7157L24.7725 14.945C25.3701 14.4095 25.9976 13.7029 26.8043 13.5554Z" fill="var(--fill-0, #FDE4C3)"/>
<path id="Vector_2" d="M22.0029 17.3905C22.1369 17.3106 22.6583 16.8367 22.7945 16.7157L24.7725 14.945C25.3701 14.4095 25.9976 13.7029 26.8043 13.5554C26.8049 14.1765 26.7664 16.1262 26.8346 16.6384L26.8083 16.6384C26.8357 17.5905 26.8109 18.5613 26.8091 19.516L26.8065 24.5951L26.8118 41.3628C26.4016 41.3609 24.6605 41.3318 24.3816 41.4037L23.8449 41.3908C23.4408 41.3534 22.4412 41.3822 22.0049 41.3947L16.1203 41.3959C15.1495 41.4547 13.6581 41.4188 12.69 41.3816C12.6381 41.1093 12.6553 40.5222 12.655 40.2257L12.6549 38.2241C12.655 36.1835 12.5929 33.8583 12.6674 31.8466C12.6506 31.7572 12.672 31.207 12.6737 31.082C12.6873 30.4506 12.6881 29.819 12.676 29.1876C12.1714 29.5561 11.6716 30.2174 11.005 30.2158C10.3046 30.2141 9.69431 29.6002 9.70759 28.8963C9.71025 28.6529 9.79073 28.4169 9.93717 28.2226C10.2442 27.8107 11.0499 27.1535 11.4618 26.7809C12.4436 25.8926 13.4717 25.032 14.4368 24.1246C14.6908 23.9499 16.0169 22.7501 16.2927 22.4932C17.2724 21.581 18.5386 20.5796 19.452 19.6504C19.65 19.5354 20.64 18.634 20.8505 18.4337C21.2028 18.15 21.6867 17.7055 22.0029 17.3905Z" fill="var(--fill-0, #FEF3DF)"/>
<path id="Vector_3" d="M16.1203 41.3959L16.1216 33.8934L16.1174 31.7394C16.1115 30.1763 15.9888 29.2067 17.9896 29.25C19.2127 29.2652 20.4335 29.2683 21.6569 29.2542C22.3942 29.2552 23.2356 29.1442 23.6642 29.898C23.7999 30.1366 23.8324 30.3601 23.8353 30.6298C23.873 34.2033 23.7956 37.8215 23.8449 41.3908C23.4408 41.3534 22.4412 41.3822 22.0049 41.3947L16.1203 41.3959Z" fill="var(--fill-0, #A44F3F)"/>
<path id="Vector_4" d="M22.0029 17.3905C22.1369 17.3106 22.6583 16.8367 22.7945 16.7157L24.7725 14.945C25.3701 14.4095 25.9976 13.7029 26.8043 13.5554C26.8049 14.1765 26.7664 16.1262 26.8346 16.6384L26.8083 16.6384C26.6395 16.6933 24.231 18.8835 23.9093 19.1694L15.6851 26.4789L13.6141 28.3189C13.4585 28.4573 12.7793 29.0498 12.676 29.1876C12.1714 29.5561 11.6716 30.2174 11.005 30.2158C10.3046 30.2141 9.69431 29.6002 9.70759 28.8963C9.71025 28.6529 9.79073 28.4169 9.93717 28.2226C10.2442 27.8107 11.0499 27.1535 11.4618 26.7809C12.4436 25.8926 13.4717 25.032 14.4368 24.1246C14.6908 23.9499 16.0169 22.7501 16.2927 22.4932C17.2724 21.581 18.5386 20.5796 19.452 19.6504C19.65 19.5354 20.64 18.634 20.8505 18.4337C21.2028 18.15 21.6867 17.7055 22.0029 17.3905Z" fill="var(--fill-0, #FE415C)"/>
<path id="Vector_5" d="M26.8043 13.5554C27.8428 13.6457 29.4727 15.6475 30.4226 16.2861C30.7936 16.6805 31.2048 16.9484 31.5779 17.2988C32.1323 17.8194 32.7221 18.3002 33.2796 18.8011L36.233 21.4443C36.4832 21.666 36.9203 22.1233 37.1443 22.3C37.6692 22.7856 38.1996 23.2653 38.7354 23.7388C38.9596 23.9388 39.4662 24.4048 39.6971 24.5557L41.9806 26.553C42.2617 26.7967 42.9253 27.4401 43.1952 27.6317C44.3884 28.4793 44.1684 30.0438 42.6697 30.2533C41.9847 30.349 41.4737 29.5347 40.966 29.2234C40.6038 28.8066 39.5792 27.9438 39.1102 27.527L35.4972 24.3182L29.8504 19.297C28.9415 18.4888 27.7689 17.3825 26.8346 16.6384C26.7664 16.1262 26.8049 14.1765 26.8043 13.5554Z" fill="var(--fill-0, #E20059)"/>
<path id="Vector_6" d="M24.3816 41.4037C25.5328 41.4326 26.8141 41.4037 27.9761 41.4038L35.2605 41.404L38.9639 41.4025C39.3238 41.402 40.606 41.4112 40.9209 41.3668L40.9677 41.261L41.01 41.3589C41.1706 41.4175 41.3832 41.3707 41.5586 41.3712C42.6737 41.3744 43.3933 41.1823 44 42.275V43.0938C43.716 43.5334 43.5789 43.707 43.1307 44H22.0031L22.0049 41.3947C22.4412 41.3822 23.4408 41.3534 23.8449 41.3908L24.3816 41.4037Z" fill="var(--fill-0, #9EBD2A)"/>
<path id="Vector_7" d="M29.4436 29.2685C30.726 29.2304 32.0165 29.2549 33.2999 29.254C34.1154 29.2535 34.9634 29.2044 35.7735 29.2668C35.992 29.2836 36.2418 29.32 36.4395 29.4149C36.7116 29.5457 36.9246 29.8371 37.0226 30.1167C37.1684 30.5327 37.1285 36.1875 37.0725 36.9355C37.0624 37.0702 37.0398 37.193 36.9772 37.314C36.7621 37.7299 36.4542 37.9155 36.0208 38.0462C35.7983 38.0647 35.5731 38.0626 35.3496 38.0609C33.4636 38.0488 31.5495 38.082 29.6665 38.0523C29.037 38.0423 28.3907 37.6269 28.3434 36.9979C28.2799 36.1526 28.3122 35.1433 28.3125 34.2973L28.3142 31.8642C28.3147 30.7944 28.0756 29.5295 29.4436 29.2685Z" fill="var(--fill-0, #A44F3F)"/>
<path id="Vector_8" d="M30.879 31.8339L34.5373 31.8368L34.5425 35.485L30.8842 35.4875L30.879 31.8339Z" fill="var(--fill-0, #C7FEFE)"/>
<path id="Vector_9" d="M19.8202 0H20.7791H21.7739C21.9948 0.110648 22.4886 0.126577 22.7583 0.181017C26.6908 0.974819 29.8658 4.34607 30.3413 8.34277C30.474 9.45845 30.4337 10.5774 30.433 11.7012L30.4226 16.2861C29.4727 15.6475 27.8428 13.6457 26.8043 13.5554C25.9976 13.7029 25.3701 14.4095 24.7725 14.945L22.7945 16.7157C22.6583 16.8367 22.1369 17.3106 22.0029 17.3905C21.6867 17.7055 21.2028 18.15 20.8505 18.4337C20.64 18.634 19.65 19.5354 19.452 19.6504C18.5386 20.5796 17.2724 21.581 16.2927 22.4932C16.0169 22.7501 14.6908 23.9499 14.4368 24.1246C14.4197 24.0078 14.4147 23.8734 14.4176 23.7556C14.4699 21.6197 14.1379 19.7686 13.4724 17.7291C13.1606 16.7756 12.7982 15.8394 12.3868 14.9244C12.0123 14.0933 11.5432 13.2419 11.2029 12.3994C11.1909 12.3698 11.1754 12.1089 11.1609 12.0202C11.1058 11.7126 11.1308 11.1534 11.1231 10.8225C11.0878 9.31631 11.1727 7.95644 11.6551 6.51479C12.5589 3.8139 14.8283 1.40959 17.5602 0.531622C17.9748 0.397249 18.3968 0.286971 18.8204 0.184912C19.1148 0.113969 19.561 0.145261 19.8202 0Z" fill="var(--fill-0, #DFDA3F)"/>
<path id="Vector_10" d="M20.7791 0H21.7739C21.9948 0.110648 22.4886 0.126577 22.7583 0.181017C26.6908 0.974819 29.8658 4.34607 30.3413 8.34277C30.474 9.45845 30.4337 10.5774 30.433 11.7012L30.4226 16.2861C29.4727 15.6475 27.8428 13.6457 26.8043 13.5554C25.9976 13.7029 25.3701 14.4095 24.7725 14.945L22.7945 16.7157C22.6583 16.8367 22.1369 17.3106 22.0029 17.3905L22.0046 12.7354C22.0059 11.9453 22.0331 11.1329 21.9691 10.3476C21.92 9.74656 21.3779 9.30982 20.7947 9.27725L20.768 9.27231C20.8323 9.13958 20.7851 0.99257 20.7791 0Z" fill="var(--fill-0, #9EBD2A)"/>
<path id="Vector_11" d="M20.768 9.27231L20.7947 9.27725C21.3779 9.30982 21.92 9.74656 21.9691 10.3476C22.0331 11.1329 22.0059 11.9453 22.0046 12.7354L22.0029 17.3905C21.6867 17.7055 21.2028 18.15 20.8505 18.4337C20.64 18.634 19.65 19.5354 19.452 19.6504L19.4185 18.1427L19.3106 18.0352L17.6941 16.4074C17.2995 16.0089 16.8828 15.6328 16.5626 15.1696C15.9792 14.3254 16.7613 13.1907 17.7255 13.2405C18.3968 13.2752 18.9867 14.0385 19.4233 14.5056C19.4284 13.6635 19.4291 12.8213 19.4252 11.9792C19.4208 10.8545 19.1884 9.34025 20.768 9.27231Z" fill="var(--fill-0, #A44F3F)"/>
<path id="Vector_12" d="M20.7947 9.27725C21.3779 9.30982 21.92 9.74656 21.9691 10.3476C22.0331 11.1329 22.0059 11.9453 22.0046 12.7354L22.0029 17.3905C21.6867 17.7055 21.2028 18.15 20.8505 18.4337C20.6984 18.0405 20.7855 10.2615 20.7947 9.27725Z" fill="var(--fill-0, #89402F)"/>
<path id="Vector_13" d="M7.22472 7.23843C8.20888 7.22605 8.75411 8.39266 9.24378 9.0961C9.71463 9.77251 10.1177 10.5195 10.5419 11.2243C10.6667 11.4316 10.9791 12.1382 11.113 12.2549C11.1577 12.1532 11.1537 12.1336 11.1609 12.0202C11.1754 12.1089 11.1909 12.3698 11.2029 12.3994C11.5432 13.2419 12.0123 14.0933 12.3868 14.9244C12.7982 15.8394 13.1606 16.7756 13.4724 17.7291C14.1379 19.7686 14.4699 21.6197 14.4176 23.7556C14.4147 23.8734 14.4197 24.0078 14.4368 24.1246C13.4717 25.032 12.4436 25.8926 11.4618 26.7809C11.0499 27.1535 10.2442 27.8107 9.93717 28.2226C9.79073 28.4169 9.71025 28.6529 9.70759 28.8963C9.69431 29.6002 10.3046 30.2141 11.005 30.2158C11.6716 30.2174 12.1714 29.5561 12.676 29.1876C12.6881 29.819 12.6873 30.4506 12.6737 31.082C12.672 31.207 12.6506 31.7572 12.6674 31.8466C12.5247 31.9169 11.959 33.0149 11.7943 33.2441C10.8891 34.5043 9.99518 35.2783 8.54202 35.8159C8.14417 35.8966 7.65965 35.9959 7.25575 36.0013L7.25317 35.9785C6.87186 35.9672 6.34932 35.8628 5.94223 35.8252C5.47456 35.6451 4.60212 35.1896 4.22929 34.868C0.771826 31.8693 -0.280016 25.8526 0.149666 21.436C0.593115 16.8779 3.52895 11.615 6.10461 7.87432C6.36878 7.4907 6.76663 7.27439 7.22472 7.23843Z" fill="var(--fill-0, #DFDA3F)"/>
<path id="Vector_14" d="M7.22472 7.23843C8.20888 7.22605 8.75411 8.39266 9.24378 9.0961C9.71463 9.77251 10.1177 10.5195 10.5419 11.2243C10.6667 11.4316 10.9791 12.1382 11.113 12.2549C11.1577 12.1532 11.1537 12.1336 11.1609 12.0202C11.1754 12.1089 11.1909 12.3698 11.2029 12.3994C11.5432 13.2419 12.0123 14.0933 12.3868 14.9244C12.7982 15.8394 13.1606 16.7756 13.4724 17.7291C14.1379 19.7686 14.4699 21.6197 14.4176 23.7556C14.4147 23.8734 14.4197 24.0078 14.4368 24.1246C13.4717 25.032 12.4436 25.8926 11.4618 26.7809C11.0499 27.1535 10.2442 27.8107 9.93717 28.2226C9.79073 28.4169 9.71025 28.6529 9.70759 28.8963C9.69431 29.6002 10.3046 30.2141 11.005 30.2158C11.6716 30.2174 12.1714 29.5561 12.676 29.1876C12.6881 29.819 12.6873 30.4506 12.6737 31.082C12.672 31.207 12.6506 31.7572 12.6674 31.8466C12.5247 31.9169 11.959 33.0149 11.7943 33.2441C10.8891 34.5043 9.99518 35.2783 8.54202 35.8159C8.14417 35.8966 7.65965 35.9959 7.25575 36.0013L7.25317 35.9785C7.23117 33.8626 7.25721 31.6867 7.25704 29.566L7.25691 16.1575L7.25832 10.7785C7.2585 9.6259 7.27921 8.38325 7.22472 7.23843Z" fill="var(--fill-0, #9EBD2A)"/>
<path id="Vector_15" d="M37.3808 0H38.2877H39.178L39.2112 0.0119595C39.5556 0.13432 39.9128 0.183391 40.2701 0.312904C42.0475 0.957129 43.3812 2.4631 43.8341 4.29395C43.8969 4.54786 43.9274 4.78848 44 5.0423V6.34L43.988 6.36793C43.8797 6.62905 43.7804 7.31895 43.63 7.71981C43.0813 9.1841 41.9709 10.2969 40.5471 10.9211C40.0496 11.1392 38.7929 11.483 38.289 11.357C37.6331 11.3779 37.0607 11.2615 36.4396 11.0449C31.5035 9.32198 31.255 2.38518 36.1023 0.382832C36.4589 0.235529 37.1235 0.141936 37.3808 0Z" fill="var(--fill-0, #FEB455)"/>
<path id="Vector_16" d="M37.3808 0H38.2877L38.2896 8.3985L38.2946 10.3192C38.2966 10.5179 38.3198 11.2014 38.289 11.357C37.6331 11.3779 37.0607 11.2615 36.4396 11.0449C31.5035 9.32198 31.255 2.38518 36.1023 0.382832C36.4589 0.235529 37.1235 0.141936 37.3808 0Z" fill="var(--fill-0, #DFDA3F)"/>
<path id="Vector_17" d="M5.94516 41.3567C6.29213 41.3914 7.55141 41.4383 7.86564 41.3875L8.55654 41.3727C9.74402 41.4755 11.4396 41.3022 12.69 41.3816C13.6581 41.4188 15.1495 41.4547 16.1203 41.3959L22.0049 41.3947L22.0031 44H0.885792C0.447416 43.7843 0.257436 43.4779 0 43.0904V42.321C0.582381 41.2711 0.948656 41.3898 2.06767 41.3719C3.34574 41.3515 4.6701 41.4209 5.94516 41.3567Z" fill="var(--fill-0, #DFDA3F)"/>
<path id="Vector_18" d="M37.1443 22.3C37.0993 21.3771 37.1188 20.413 37.1162 19.4954C37.1146 18.9356 37.0726 18.1182 37.1585 17.6039C37.3173 16.6527 38.661 16.2789 39.3311 16.9854C39.8002 17.4799 39.7581 17.8469 39.7809 18.4815C39.7827 19.684 39.7884 20.9133 39.7777 22.1147C39.772 22.7542 39.809 23.967 39.6971 24.5557C39.4662 24.4048 38.9596 23.9388 38.7354 23.7388C38.1996 23.2653 37.6692 22.7856 37.1443 22.3Z" fill="var(--fill-0, #FE415C)"/>
<path id="Vector_19" d="M5.94223 35.8252C6.34932 35.8628 6.87186 35.9672 7.25317 35.9785L7.25575 36.0013C7.65965 35.9959 8.14417 35.8966 8.54202 35.8159C8.59482 36.3106 8.59581 36.8407 8.58821 37.339C8.5678 38.6767 8.63135 40.0386 8.55654 41.3727L7.86564 41.3875C7.55141 41.4383 6.29213 41.3914 5.94516 41.3567C5.88367 40.4182 5.94722 39.1728 5.92835 38.2064C5.91654 37.6028 5.88779 36.3576 5.94223 35.8252Z" fill="var(--fill-0, #CA6F5C)"/>
<path id="Vector_20" d="M7.25575 36.0013C7.65965 35.9959 8.14417 35.8966 8.54202 35.8159C8.59482 36.3106 8.59581 36.8407 8.58821 37.339C8.5678 38.6767 8.63135 40.0386 8.55654 41.3727L7.86564 41.3875L7.25888 41.3736C7.2218 40.1121 7.27079 38.8204 7.24805 37.5557C7.23912 37.0585 7.22614 36.4918 7.25575 36.0013Z" fill="var(--fill-0, #A44F3F)"/>
</g>
<defs>
<clipPath id="clip0_0_45388">
<rect width="44" height="44" fill="white"/>
</clipPath>
</defs>
</svg>
