<svg preserveAspectRatio="none" width="100%" height="100%" overflow="visible" style="display: block;" viewBox="0 0 44 44" fill="none" xmlns="http://www.w3.org/2000/svg">
<g id="Frame 2087328533 [Vectorized]" clip-path="url(#clip0_0_45373)">
<path id="Vector" d="M35.3714 0H37.1136C37.6938 0.178924 38.6677 0.161065 38.9569 0.700923C39.0277 0.832915 39.0684 1.12576 39.0029 1.23531C38.4514 2.15786 36.9578 3.30457 36.2692 4.10612L36.274 6.51234C36.2741 6.78562 36.2894 7.49375 36.2524 7.73175L39.8514 7.72062C40.7091 7.02513 41.8725 5.4554 42.8588 4.94948C42.9679 4.89354 43.2038 4.97716 43.3245 5.05016C43.7864 5.32984 43.8844 6.27193 44 6.80986V8.7517L43.9875 8.78208C43.8548 9.11999 43.7216 9.93768 43.5299 10.4623C42.8022 12.4097 41.3169 13.9792 39.4125 14.8129C37.8034 15.5365 35.9832 15.6288 34.2714 15.2585C33.746 15.729 33.1454 16.3627 32.6406 16.8691L29.8366 19.6804L28.3383 21.1724C28.1939 21.316 27.6971 21.7977 27.6022 21.9312C26.8774 22.5662 25.4598 23.9875 24.7748 24.7221L22.9557 26.5282C22.7248 26.759 22.1151 27.3545 21.93 27.6045C21.372 28.1052 20.7577 28.7501 20.2223 29.2863L17.0184 32.493C16.4657 33.0455 15.8358 33.7056 15.2672 34.2303C15.6994 36.56 15.5131 38.6427 14.1446 40.6444C13.2107 42.0096 11.862 43.0379 10.2981 43.5768C10.068 43.6545 8.99293 43.942 8.88362 44H6.58496C6.15661 43.768 4.95971 43.8088 4.94742 43.0048C4.93986 42.5118 5.68116 41.9153 6.01532 41.5756C6.57675 41.0049 7.1836 40.4607 7.73472 39.8726L7.73919 36.2697C6.6993 36.2713 5.61971 36.2857 4.58373 36.2631C4.48147 36.2679 4.17342 36.2751 4.08156 36.3272C3.35471 36.7395 1.39249 39.6998 0.578114 38.8947C0.150611 38.472 0.209691 37.6206 0 37.1431V35.3723C0.0838432 35.2108 0.25295 34.1941 0.358016 33.8857C0.862374 32.405 1.80654 30.9907 3.06842 30.0628C4.44512 29.0505 6.20237 28.494 7.90333 28.5334C8.5479 28.5483 9.13889 28.6463 9.76693 28.7346C10.0061 28.5323 10.4225 28.0884 10.6546 27.8551L12.406 26.0965C14.0777 24.4232 15.7856 22.7522 17.4397 21.0653C18.0726 20.4611 18.6947 19.8456 19.3056 19.2191C19.7135 18.876 20.6916 17.8363 21.0679 17.4406C21.3009 17.2541 21.9223 16.5909 22.1653 16.3461L24.5326 13.9697L27.3635 11.1478C27.7295 10.7829 28.48 10.0786 28.761 9.7243C28.6694 9.40552 28.6356 9.06258 28.5945 8.73671C28.1176 4.95907 30.4795 1.1927 34.2258 0.274437C34.5469 0.195725 35.0438 0.129802 35.3419 0.011979L35.3714 0Z" fill="var(--fill-0, #B8C7D4)"/>
<path id="Vector_2" d="M35.3714 0H37.1136C37.6938 0.178924 38.6677 0.161065 38.9569 0.700923C39.0277 0.832915 39.0684 1.12576 39.0029 1.23531C38.4514 2.15786 36.9578 3.30457 36.2692 4.10612L36.274 6.51234C36.2741 6.78562 36.2894 7.49375 36.2524 7.73175C36.1694 7.85331 35.749 8.23389 35.615 8.3667L34 9.97825L27.6016 16.3801L14.1953 29.8159L10.007 34.0086C9.32942 34.6874 8.48341 35.5864 7.78912 36.2149C7.10909 36.258 5.02025 36.1689 4.58373 36.2631C4.48147 36.2679 4.17342 36.2751 4.08156 36.3272C3.35471 36.7395 1.39249 39.6998 0.578114 38.8947C0.150611 38.472 0.209691 37.6206 0 37.1431V35.3723C0.0838432 35.2108 0.25295 34.1941 0.358016 33.8857C0.862374 32.405 1.80654 30.9907 3.06842 30.0628C4.44512 29.0505 6.20237 28.494 7.90333 28.5334C8.5479 28.5483 9.13889 28.6463 9.76693 28.7346C10.0061 28.5323 10.4225 28.0884 10.6546 27.8551L12.406 26.0965C14.0777 24.4232 15.7856 22.7522 17.4397 21.0653C18.0726 20.4611 18.6947 19.8456 19.3056 19.2191C19.7135 18.876 20.6916 17.8363 21.0679 17.4406C21.3009 17.2541 21.9223 16.5909 22.1653 16.3461L24.5326 13.9697L27.3635 11.1478C27.7295 10.7829 28.48 10.0786 28.761 9.7243C28.6694 9.40552 28.6356 9.06258 28.5945 8.73671C28.1176 4.95907 30.4795 1.1927 34.2258 0.274437C34.5469 0.195725 35.0438 0.129802 35.3419 0.011979L35.3714 0Z" fill="var(--fill-0, #D9E2EB)"/>
<path id="Vector_3" d="M27.6022 21.9312C31.2935 21.7036 32.4824 23.2402 34.8614 25.6321L38.1869 28.9785C39.3357 30.1355 40.5029 31.2421 41.6115 32.4435C42.1822 33.0619 42.7138 33.5042 43.172 34.2729C43.5033 34.8288 43.6799 35.3563 43.8341 35.9844C43.8879 36.204 43.9282 36.4994 44 36.702V38.4386L43.988 38.4705C43.9265 38.6391 43.8118 39.1715 43.7512 39.3929C43.4612 40.4544 42.9357 41.3153 42.172 42.1111C41.2073 43.0422 40.1995 43.6051 38.9047 43.9003C38.8058 43.9227 38.6693 43.9523 38.5824 44H36.5842C36.4542 43.9433 36.1029 43.8591 35.9447 43.8118C35.3246 43.6262 34.5621 43.3606 34.0325 42.9829C33.0835 42.3064 32.1995 41.339 31.37 40.5059L27.8512 36.971L25.0484 34.1541C24.4081 33.5106 23.7805 32.9193 23.2147 32.2072C22.242 30.983 21.7266 29.1603 21.93 27.6045C22.1151 27.3545 22.7248 26.759 22.9557 26.5282L24.7748 24.7221C25.4598 23.9875 26.8774 22.5662 27.6022 21.9312Z" fill="var(--fill-0, #B22E65)"/>
<path id="Vector_4" d="M27.6022 21.9312C31.2935 21.7036 32.4824 23.2402 34.8614 25.6321L38.1869 28.9785C39.3357 30.1355 40.5029 31.2421 41.6115 32.4435C42.1822 33.0619 42.7138 33.5042 43.172 34.2729C43.5033 34.8288 43.6799 35.3563 43.8341 35.9844C43.8879 36.204 43.9282 36.4994 44 36.702V38.4386L43.988 38.4705C43.9265 38.6391 43.8118 39.1715 43.7512 39.3929C43.4612 40.4544 42.9357 41.3153 42.172 42.1111L38.4405 38.4128L38.429 38.411C38.254 38.0803 27.5443 27.5352 27.548 27.5364L27.5487 27.523C26.7425 26.6327 25.648 25.5662 24.7748 24.7221C25.4598 23.9875 26.8774 22.5662 27.6022 21.9312Z" fill="var(--fill-0, #E9336D)"/>
<path id="Vector_5" d="M27.5487 27.523C28.1095 27.0826 28.7292 26.9532 29.3013 27.4646C29.9267 28.0237 30.5079 28.6353 31.1004 29.2298L34.3444 32.4864L37.0592 35.2138C37.5781 35.7351 38.1344 36.2551 38.5975 36.8241C38.9819 37.2966 38.8138 37.988 38.4405 38.4128L38.429 38.411C38.254 38.0803 27.5443 27.5352 27.548 27.5364L27.5487 27.523Z" fill="var(--fill-0, #FEAF40)"/>
<path id="Vector_6" d="M27.548 27.5364C27.5443 27.5352 38.254 38.0803 38.429 38.411C37.9147 39.02 37.1345 38.9006 36.6051 38.3926C35.9917 37.804 35.4011 37.2102 34.8025 36.6071L31.6777 33.4682L28.9765 30.7584C28.4576 30.2375 27.914 29.7227 27.4405 29.1615C27.02 28.663 27.1398 27.9996 27.548 27.5364Z" fill="var(--fill-0, #FE9400)"/>
<path id="Vector_7" d="M3.18027 0H3.81658C4.67431 0.387659 6.45257 1.57602 7.33322 2.11599L10.3464 3.96475C10.8855 4.29804 11.4082 4.62146 11.9367 4.972C13.2648 5.85277 11.5394 6.68022 11.0355 7.37146C10.4745 7.91824 9.7897 8.64669 9.2308 9.16188L9.23325 9.18487C8.68321 9.74136 7.92816 10.5501 7.36746 11.0545C6.98938 11.442 6.64439 11.8533 6.21397 12.1849C5.68554 12.592 5.33955 12.3798 5.00354 11.8766C4.4147 10.9947 3.85798 10.0833 3.29256 9.18466C2.17473 7.43488 1.07713 5.6723 0 3.89721V3.14796C0.470968 2.43056 0.848753 2.07583 1.47039 1.49025C1.95687 0.992127 2.57193 0.314626 3.18027 0Z" fill="var(--fill-0, #B8C7D4)"/>
<path id="Vector_8" d="M3.18027 0H3.81658C4.67431 0.387659 6.45257 1.57602 7.33322 2.11599L10.3464 3.96475C10.8855 4.29803 11.4082 4.62146 11.9367 4.972C13.2648 5.85277 11.5394 6.68022 11.0355 7.37146C10.4745 7.91824 9.7897 8.64669 9.23081 9.16188C9.04148 9.01068 8.42114 8.36021 8.22662 8.16604L6.12558 6.07887L2.73142 2.71135C2.40963 2.39118 1.73195 1.77448 1.47039 1.49025C1.95687 0.992127 2.57193 0.314626 3.18027 0Z" fill="var(--fill-0, #D9E2EB)"/>
<path id="Vector_9" d="M11.0355 7.37146C13.3405 9.59832 15.6561 11.979 17.9274 14.2514L19.9785 16.3004C20.253 16.5746 20.8687 17.1588 21.0679 17.4406C20.6916 17.8363 19.7135 18.876 19.3056 19.2192C18.6947 19.8456 18.0726 20.4611 17.4397 21.0653C17.1613 20.7352 16.4456 20.0608 16.1037 19.7194L13.4023 17.0269L9.56673 13.2084C8.88534 12.5317 8.074 11.6926 7.36747 11.0545C7.92816 10.5501 8.68321 9.74136 9.23325 9.18487L9.23081 9.16188C9.7897 8.64669 10.4745 7.91824 11.0355 7.37146Z" fill="var(--fill-0, #5D697C)"/>
<path id="Vector_10" d="M11.0355 7.37146C13.3405 9.59832 15.6561 11.979 17.9274 14.2514L19.9785 16.3004C20.253 16.5746 20.8687 17.1588 21.0679 17.4406C20.6916 17.8363 19.7135 18.876 19.3056 19.2192C19.0813 19.0397 18.5723 18.5073 18.3492 18.285L16.4541 16.3907L11.8495 11.7849C10.9923 10.9275 10.1083 10.0132 9.23325 9.18487L9.2308 9.16188C9.7897 8.64669 10.4745 7.91824 11.0355 7.37146Z" fill="var(--fill-0, #7A8699)"/>
</g>
<defs>
<clipPath id="clip0_0_45373">
<rect width="44" height="44" fill="white"/>
</clipPath>
</defs>
</svg>
